<?xml version="1.0" standalone="no"?>
<!DOCTYPE svg PUBLIC "-//W3C//DTD SVG 20010904//EN"
 "http://www.w3.org/TR/2001/REC-SVG-20010904/DTD/svg10.dtd">
<svg version="1.0" xmlns="http://www.w3.org/2000/svg"
 width="101.000000pt" height="101.000000pt" viewBox="0 0 101.000000 101.000000"
 preserveAspectRatio="xMidYMid meet">
<metadata>
Created by potrace 1.11, written by Peter Selinger 2001-2013
</metadata>
<g transform="translate(0.000000,101.000000) scale(0.100000,-0.100000)"
fill="#000000" stroke="none">
<path d="M525 850 c-4 -6 -23 -9 -43 -7 -20 3 -43 2 -50 -1 -18 -6 -37 -47
-52 -109 -12 -51 -13 -53 -46 -53 -19 0 -42 -8 -52 -18 -27 -27 -76 -233 -68
-288 27 -204 264 -290 420 -154 51 45 59 63 106 244 48 183 48 212 3 241 -18
11 -32 27 -33 35 0 28 -30 60 -56 60 -13 0 -24 4 -24 8 0 5 -9 18 -20 30 -22
23 -74 30 -85 12z m49 -49 c6 -10 -38 -210 -54 -248 -12 -29 -3 -53 21 -53 13
0 21 11 28 38 15 57 51 204 51 208 0 2 9 4 20 4 24 0 25 -11 6 -76 -8 -27 -17
-62 -20 -77 -3 -16 -10 -44 -17 -64 -9 -28 -9 -38 2 -49 23 -22 35 -3 58 86
24 91 34 111 52 93 7 -7 5 -31 -6 -79 -9 -38 -19 -81 -21 -97 -15 -82 -55
-192 -81 -219 -79 -84 -204 -89 -286 -10 -68 64 -77 123 -41 266 17 68 31 106
40 106 22 0 25 -17 13 -62 -26 -96 -25 -103 27 -142 26 -20 55 -36 65 -36 27
0 24 34 -3 54 -63 44 -61 36 -39 117 11 41 22 85 24 99 9 50 39 140 46 140 26
0 26 -27 -1 -128 -34 -131 -35 -155 -8 -150 12 2 21 8 22 13 0 6 4 20 9 33 5
12 11 33 13 45 2 12 12 51 21 87 9 36 18 70 19 75 5 29 29 45 40 26z"/>
<path d="M80 730 c-58 -114 -77 -265 -35 -265 15 0 21 8 22 30 6 64 27 143 54
205 16 35 27 70 25 77 -11 29 -37 10 -66 -47z"/>
<path d="M203 744 c-19 -8 -72 -148 -81 -212 -9 -65 -1 -102 22 -102 17 0 22
17 30 90 5 48 29 127 53 173 21 41 10 64 -24 51z"/>
<path d="M843 588 c-6 -7 -13 -40 -16 -74 -2 -33 -17 -89 -32 -125 -33 -77
-36 -102 -13 -107 34 -7 99 166 100 265 0 49 -18 68 -39 41z"/>
<path d="M937 563 c-4 -3 -7 -25 -7 -48 0 -50 -23 -132 -58 -203 -26 -54 -22
-82 12 -69 39 15 108 238 92 301 -6 25 -25 34 -39 19z"/>
</g>
</svg>
