<svg xmlns="http://www.w3.org/2000/svg" 
  xmlns:xlink="http://www.w3.org/1999/xlink" width="112.57" height="33.488" viewBox="0 0 112.57 33.488">
  <defs>
    <filter id="a" x="0" y="0" width="112.57" height="33.488" filterUnits="userSpaceOnUse">
      <feOffset dy="1" input="SourceAlpha"/>
      <feGaussianBlur stdDeviation="3" result="b"/>
      <feFlood flood-opacity="0.161"/>
      <feComposite operator="in" in2="b"/>
      <feComposite in="SourceGraphic"/>
    </filter>
  </defs>
  <g transform="matrix(1, 0, 0, 1, 0, 0)" filter="url(#a)">
    <path d="M.293-.664A.055.055,0,0,1,.215-.7.24.24,0,0,1,.205-.82a.154.154,0,0,1,.059-.1.112.112,0,0,1,.127,0,1.6,1.6,0,0,1-.322-.566A3.187,3.187,0,0,0-.2-2.109a.305.305,0,0,0,.078-.166A1.89,1.89,0,0,1-.068-2.48.344.344,0,0,1,.01-2.627q.049-.049.127.029a.791.791,0,0,1,0-.352A2.311,2.311,0,0,1,.225-3.2a1.063,1.063,0,0,0,.068-.234.454.454,0,0,0-.059-.273,2.752,2.752,0,0,0,.488-1.1A7.142,7.142,0,0,0,.859-5.9a1.5,1.5,0,0,0,.3-.469,2.83,2.83,0,0,0,.186-.605,3.334,3.334,0,0,0,.059-.615,1.2,1.2,0,0,0-.078-.479.1.1,0,0,1,.088-.088.5.5,0,0,1,.166.01,14.389,14.389,0,0,0,.186-1.738,16.522,16.522,0,0,1,.2-1.846,5.574,5.574,0,0,1,.479-1.562A1.589,1.589,0,0,1,3.5-14.16a3.447,3.447,0,0,0,.361.859q.225.371.488.723t.537.7a5.769,5.769,0,0,1,.508.781q-.02.449-.088,1.035T5.127-8.867Q5.02-8.262,4.912-7.7t-.205.957a.163.163,0,0,0,.137.127q.117.029.039.225.566-.137,1.182-.264T7.275-6.9q.6-.127,1.172-.3a6.961,6.961,0,0,0,1.084-.43q.117-.937.293-1.855a5.544,5.544,0,0,0,.039-1.855.853.853,0,0,0,.2-.234.359.359,0,0,1,.234-.176,3.232,3.232,0,0,1-.1-.947,3.257,3.257,0,0,1,.166-.928,2.122,2.122,0,0,1,.439-.752,1.361,1.361,0,0,1,.723-.42,5.293,5.293,0,0,1,.449.8q.2.43.391.869a8.984,8.984,0,0,0,.42.83,2.26,2.26,0,0,0,.576.664q.059.684.1,1.4t.059,1.475q-.176.879-.4,1.709a11.209,11.209,0,0,0-.322,1.768,1.418,1.418,0,0,0-.254.42q-.1.244-.186.488a4.407,4.407,0,0,1-.205.479,1.282,1.282,0,0,1-.293.391A1.089,1.089,0,0,1,11.885-3a.883.883,0,0,0,.127.576,2.069,2.069,0,0,1-.146,1.006,2.041,2.041,0,0,1-.508.684,2.514,2.514,0,0,1-.742.449q-.42.166-.83.3a3.883,3.883,0,0,1-.361-.244,1.083,1.083,0,0,0-.4-.186l.1-.176a5.019,5.019,0,0,1-.674-.83,1.7,1.7,0,0,1-.264-1.006q0-.02.039-.264T8.311-3.2q.049-.273.1-.518t.049-.264a5.408,5.408,0,0,0-1.133.254q-.586.2-1.143.439t-1.035.508q-.479.264-.771.439a1.61,1.61,0,0,1-.1.332q-.1.273-.234.576a3.22,3.22,0,0,1-.3.537q-.166.234-.342.215a.593.593,0,0,0,.078.146q.039.049,0,.186a2.606,2.606,0,0,0-.6.254,3.724,3.724,0,0,1-.537.264,1.489,1.489,0,0,1-.6.1A1.859,1.859,0,0,1,.977.02.324.324,0,0,0,.859-.225,1.611,1.611,0,0,0,.615-.41L.391-.547Q.293-.605.293-.664ZM24.8-11a.79.79,0,0,1,.01.205q-.01.068-.02.127a.773.773,0,0,0-.01.127.828.828,0,0,0,.039.205,2.239,2.239,0,0,1-.947.908,4.733,4.733,0,0,1-1.162.352q-.625.107-1.279.225a3.794,3.794,0,0,0-1.3.508.562.562,0,0,0-.459,0,1.158,1.158,0,0,1-.6.059.652.652,0,0,1-.293.166q-.176.049-.352.107a.778.778,0,0,1,.068.361.6.6,0,0,0,.049.3,8.5,8.5,0,0,0,1.514-.02q.83-.078,1.631-.1.02.1-.02.127t-.02.107a1.846,1.846,0,0,1,.273.244q.137.146.273.283a1.478,1.478,0,0,0,.283.225.542.542,0,0,0,.342.068,1.166,1.166,0,0,1,.107.342.713.713,0,0,1-.049.381q-.313.215-.625.439a5.174,5.174,0,0,1-.654.4,3.876,3.876,0,0,1-.723.283,2.707,2.707,0,0,1-.85.088h-.146a.236.236,0,0,1-.127-.059.655.655,0,0,1-.439.059.655.655,0,0,0-.439.059,1.153,1.153,0,0,0-.518-.088,1.538,1.538,0,0,1-.537-.068,6.759,6.759,0,0,0-.566.879,7.711,7.711,0,0,0-.449,1,6,6,0,0,0,1.1.078q.439-.02.83-.068l.8-.1a7.139,7.139,0,0,1,1.035-.029,2.589,2.589,0,0,1,.928-.283A4.871,4.871,0,0,0,22.5-3.32a.634.634,0,0,1,.273.205q.117.146.225.273a1.829,1.829,0,0,0,.225.225.374.374,0,0,0,.293.078.411.411,0,0,1,.107.186q.029.107.049.205a.425.425,0,0,0,.068.166.156.156,0,0,0,.166.049,2.942,2.942,0,0,1-.674.986,2.614,2.614,0,0,1-.869.518,6.129,6.129,0,0,1-1.084.273q-.6.1-1.318.234a.486.486,0,0,1-.293-.01A.707.707,0,0,0,19.395.02q-.449.1-1.074.176a8.215,8.215,0,0,1-1.27.059A5.783,5.783,0,0,1,15.82.088a2.009,2.009,0,0,1-.957-.518.639.639,0,0,1-.205-.322.434.434,0,0,0-.264-.283,5.314,5.314,0,0,0-.078-.566q-.059-.313-.117-.654t-.088-.674a2.035,2.035,0,0,1,.029-.605,1.225,1.225,0,0,1,.244-.527.587.587,0,0,0,.127-.508.135.135,0,0,0,.117-.107q.02-.088.156-.068.117-.352.254-.664t.283-.605q.146-.293.293-.6t.283-.674a1.611,1.611,0,0,1-.4-.557,3.075,3.075,0,0,1-.186-.605q-.059-.3-.1-.625a4.041,4.041,0,0,0-.137-.654,1.675,1.675,0,0,1,.479-.479,2.846,2.846,0,0,1,.615-.3,5.288,5.288,0,0,1,.723-.2q.391-.078.82-.176.781-.254,1.4-.391t1.211-.225q.6-.088,1.24-.166t1.465-.234a.493.493,0,0,0,.332.176q.078-.176.186-.107t.088-.107a1.858,1.858,0,0,0,.5.557A3.227,3.227,0,0,0,24.8-11Zm5.781,5.879a1.111,1.111,0,0,0-.234.283q-.1.166-.2.342a4.069,4.069,0,0,1-.215.41,1.5,1.5,0,0,1-.293.352,2.475,2.475,0,0,1-.2.459,2.017,2.017,0,0,1-.312.381,4.682,4.682,0,0,1-.918,1.7.95.95,0,0,1-.107.342q-.088.166-.186.322-.039.059-.078.127t-.059.107l-.039.2a1.535,1.535,0,0,1-.215.273l-.215.215a1.144,1.144,0,0,1-.137.156l-.293.117A1.882,1.882,0,0,1,25.156-.859l.02-.2a1.893,1.893,0,0,0,.068-.205q.029-.107.068-.225.078-.273.186-.547a1.419,1.419,0,0,1,.322-.488A3.708,3.708,0,0,1,26-2.959q.137-.3.469-.908.273-.469.43-.742t.254-.43a2.783,2.783,0,0,0-.469-.566q-.254-.488-.439-.937a7.141,7.141,0,0,1-.283-.8,3.125,3.125,0,0,0-.059-.43q-.039-.176-.078-.371-.059-.215-.1-.43a2.508,2.508,0,0,1-.039-.449.624.624,0,0,1-.117-.273l.039-.2a.645.645,0,0,0,.02-.361q-.039-.225-.1-.459-.039-.2-.088-.43a1.625,1.625,0,0,1-.029-.469,1.142,1.142,0,0,1,.127-.439.958.958,0,0,1,.361-.361l.332-.02q.176.1.342.186t.322.186q.215.1.41.2a2.94,2.94,0,0,1,.41.254l.137.273.254.215v.215a.927.927,0,0,1,.02.215q0,.254.078.313l.078.234a2.212,2.212,0,0,0,.059.518q.059.244.117.459t.117.449a1.314,1.314,0,0,1,.02.508.743.743,0,0,0,.2-.137.306.306,0,0,1,.078-.059.306.306,0,0,0,.078-.059L30.1-9.629l-.039-.2.41-.391q.156-.156.3-.293a1.459,1.459,0,0,0,.244-.293l.215-.156a2.654,2.654,0,0,1,1.777-1.211l.273-.039.078.254a.853.853,0,0,0,.322.391,5.864,5.864,0,0,0,.518.332l.176.117a.749.749,0,0,1,.1.293.726.726,0,0,1-.02.176l.078.2a1.67,1.67,0,0,1-.381.684q-.225.215-.439.391-.176.156-.322.283a.822.822,0,0,0-.225.322l-.137.156a1.069,1.069,0,0,0-.527.625l-.059.234h-.234q-.02,0-.088.068a1.582,1.582,0,0,0-.205.342,2.255,2.255,0,0,1-.2.254l-.1.1a.966.966,0,0,1-.049.146q-.029.068-.068.166a1.645,1.645,0,0,0-.312.381q-.059.127-.137.283t-.146.3a1.1,1.1,0,0,1-.225.3ZM41.5.273A4.762,4.762,0,0,1,40.9.215a3.056,3.056,0,0,1-.557-.908,6.144,6.144,0,0,1-.371-1.23,6.355,6.355,0,0,1-.117-1.309,3.08,3.08,0,0,1,.225-1.162q0-.02.186-.469t.479-1.143q.293-.693.664-1.543t.742-1.67q.371-.82.713-1.494a9.681,9.681,0,0,1,.6-1.045q.176-.273.322-.527t.283-.469l.4-.654a3.526,3.526,0,0,1,.41-.547,2.846,2.846,0,0,1,.5-.43,2.867,2.867,0,0,1,.664-.322,3.006,3.006,0,0,1,.41.205,1.345,1.345,0,0,1,.313.264l.059.273a.29.29,0,0,0,.127.186.32.32,0,0,0,.146.049,3.676,3.676,0,0,1,.439.127,1.563,1.563,0,0,0,.4.088q.078.117.146.234a1.775,1.775,0,0,0,.146.215,8.225,8.225,0,0,1,.645,1.094,1.369,1.369,0,0,1,0,1.152l.02.215a.446.446,0,0,1,.1.254,2,2,0,0,1-.039.332q-.02.156-.029.342a1.27,1.27,0,0,0,.049.4l.137.156a1.351,1.351,0,0,0,.605.156,1.409,1.409,0,0,0,.7-.176q.312-.176.586-.352a3.318,3.318,0,0,1,.4-.254,1.458,1.458,0,0,1,.361-.137q.41-.391.752-.693t.713-.615q.7-.566,1.367-1.221a4.707,4.707,0,0,0,1.055-1.631.89.89,0,0,1,.488-.137,1.486,1.486,0,0,1,.547.107q.273.107.547.244a.6.6,0,0,0,.107.059.6.6,0,0,1,.107.059.541.541,0,0,0,.176.391.977.977,0,0,0,.137.1l.078.039q.156.1.264.176a.5.5,0,0,1,.166.215,1.594,1.594,0,0,0,.586.82.914.914,0,0,0,.02.42,4.139,4.139,0,0,0,.137.4.857.857,0,0,1,.059.146q.02.068.059.166l-.43-.039.059.43a1.737,1.737,0,0,1-.049.742,2.627,2.627,0,0,1-.244.645q.039.586.039.928a4.815,4.815,0,0,1-.039.635,3.018,3.018,0,0,1-.127.557,5.246,5.246,0,0,1-.225.557,7.176,7.176,0,0,1-.342,2.715q-.42,1.23-.908,2.3-.059.137-.117.254a1.79,1.79,0,0,0-.1.234,2.733,2.733,0,0,0-.391.137,2.676,2.676,0,0,0-.332.176,2.72,2.72,0,0,1-.43.225,1.175,1.175,0,0,1-.449.088,2.8,2.8,0,0,1-.967-2.363,15.271,15.271,0,0,1,.713-4.277.3.3,0,0,0,.117-.293V-7.4l-.2-.02a.726.726,0,0,0-.176.02q-.078.02-.117.176-.625.449-1.357.928a16.648,16.648,0,0,1-1.514.879,10.837,10.837,0,0,1-1.592.664,5.071,5.071,0,0,1-1.572.264A3.165,3.165,0,0,1,45.43-6.484l-.176-.352-.2.313q-.059.1-.205.381a7.136,7.136,0,0,0-.293.654,7.461,7.461,0,0,0-.254.762,1.74,1.74,0,0,0-.068.684,4.755,4.755,0,0,0-.459.488,1.682,1.682,0,0,0-.322.625.311.311,0,0,0-.02.186,1.207,1.207,0,0,0,.059.186.341.341,0,0,1-.078.2,1.275,1.275,0,0,1-.137.117q-.1.1-.2.205a1.376,1.376,0,0,0-.176.244,1.484,1.484,0,0,0-.059.244q-.02.127-.039.225a.519.519,0,0,1-.059.293q-.2.41-.342.674a1.826,1.826,0,0,1-.283.4.734.734,0,0,1-.283.186A1.082,1.082,0,0,1,41.5.273ZM63.359-1.367a1.516,1.516,0,0,1-.068.918,1.123,1.123,0,0,1-.469.5,1.587,1.587,0,0,1-.693.186A3.457,3.457,0,0,1,61.387.2a3.036,3.036,0,0,1-.352-.684q-.156-.41-.293-.85T60.5-2.207q-.107-.43-.186-.762a1.858,1.858,0,0,0,.127-.537q.029-.3.039-.615t.02-.635a6.043,6.043,0,0,1,.049-.615,9.153,9.153,0,0,1,.4-1.562,10.755,10.755,0,0,0,.42-1.543.524.524,0,0,0-.029-.332.425.425,0,0,1-.029-.293.153.153,0,0,1,.117-.107.157.157,0,0,0,.117-.127.767.767,0,0,0,.029-.352.517.517,0,0,1,.068-.332,5.152,5.152,0,0,0,.244-.459,1.127,1.127,0,0,0,.107-.635,2.178,2.178,0,0,0,.332-.273,3.238,3.238,0,0,1,.322-.283,2.082,2.082,0,0,1,.371-.225,1.152,1.152,0,0,1,.5-.1,1.01,1.01,0,0,1,.205.43l.1.469a1.937,1.937,0,0,0,.146.439.7.7,0,0,0,.332.322v.391q0,.234.02.459a1.578,1.578,0,0,0,.088.41.383.383,0,0,0,.225.244q-.352.938-.654,1.855a17.21,17.21,0,0,0-.5,1.846,12.1,12.1,0,0,0-.244,1.865A8.118,8.118,0,0,0,63.359-1.367ZM77.4-.7a11.092,11.092,0,0,1-1.65-.039,4.878,4.878,0,0,1-1.4-.371.211.211,0,0,1-.078-.1.454.454,0,0,0-.078-.117.553.553,0,0,0-.283-.049.759.759,0,0,1-.283-.029,4.981,4.981,0,0,1-.488-.3q-.332-.225-.605-.42-.352-.273-.664-.547a3.844,3.844,0,0,1-.547-.586.214.214,0,0,0-.156-.088A.5.5,0,0,1,71-3.4a3.43,3.43,0,0,0-.957.879q-.391.527-.742,1.074A12.319,12.319,0,0,1,68.555-.41a2.478,2.478,0,0,1-1,.742.787.787,0,0,1-.312-.059,1.227,1.227,0,0,1-.254-.146q-.117-.088-.234-.166A.9.9,0,0,0,66.5-.156a1.035,1.035,0,0,0-.088-.43q-.088-.2-.176-.371a1.572,1.572,0,0,1-.127-.342.375.375,0,0,1,.078-.322,1.762,1.762,0,0,0-.352-.254.282.282,0,0,0,.107-.215.716.716,0,0,0-.049-.2A1.669,1.669,0,0,1,65.83-2.5a.285.285,0,0,1,.049-.234.875.875,0,0,0,.234-.039Q66-2.93,66.006-2.959t-.049-.088q-.039-.117.039-.146a1.626,1.626,0,0,0,.156-.068,8.278,8.278,0,0,1,.332-1.777q.254-.82.566-1.582t.615-1.543a11.271,11.271,0,0,0,.5-1.68,1.622,1.622,0,0,0,.342-.508q.127-.293.273-.586a5.715,5.715,0,0,1,.332-.576,1.369,1.369,0,0,1,.518-.459,1.1,1.1,0,0,1,.488.146.905.905,0,0,0,.527.107q.059.1.107.2a1.106,1.106,0,0,0,.127.2l.293-.059a1.8,1.8,0,0,1,.381.439,1.643,1.643,0,0,1,.225.557,1.143,1.143,0,0,1-.02.557.7.7,0,0,1-.371.42.406.406,0,0,1,.01.146.348.348,0,0,1-.029.088.173.173,0,0,0-.02.078.237.237,0,0,0,.059.117,1.756,1.756,0,0,0-.586.82,3.184,3.184,0,0,0-.215.938,6.028,6.028,0,0,1,.518-.459q.283-.225.586-.439t.586-.41q.283-.2.518-.391a8.173,8.173,0,0,1,1.24-.947q.6-.361,1.26-.811a.454.454,0,0,1,.244-.01q.088.029.186.068,0-.117-.068-.137t-.049-.156a2.688,2.688,0,0,0,.508-.186q.215-.107.469-.205.176.176.332.361a.661.661,0,0,0,.43.225.844.844,0,0,0,.234.322q.137.107.273.205a1.188,1.188,0,0,1,.244.234.782.782,0,0,1,.127.43l-.166.293a2.511,2.511,0,0,0-.166.371,7.55,7.55,0,0,1-.791.625q-.4.273-.811.527t-.84.508a8.213,8.213,0,0,0-.879.605,1.085,1.085,0,0,1-.244.244q-.146.107-.3.215a3.473,3.473,0,0,0-.293.225.87.87,0,0,0-.215.273.369.369,0,0,1-.117.02.369.369,0,0,0-.117.02.459.459,0,0,1-.186.215.363.363,0,0,0-.166.215,2.372,2.372,0,0,0,.762.957,3.112,3.112,0,0,0,1.055.479,5.555,5.555,0,0,0,1.27.156q.684.01,1.426.01.078-.02.068-.088t.088-.049a1.645,1.645,0,0,1,.723.439,4.617,4.617,0,0,0,.605.557,2.02,2.02,0,0,1-.449,1.23A2.877,2.877,0,0,1,77.4-.7ZM89.434-11a.79.79,0,0,1,.01.205q-.01.068-.02.127a.774.774,0,0,0-.01.127.828.828,0,0,0,.039.205,2.239,2.239,0,0,1-.947.908,4.733,4.733,0,0,1-1.162.352q-.625.107-1.279.225a3.794,3.794,0,0,0-1.3.508.562.562,0,0,0-.459,0,1.158,1.158,0,0,1-.6.059.652.652,0,0,1-.293.166q-.176.049-.352.107a.778.778,0,0,1,.068.361.6.6,0,0,0,.049.3,8.5,8.5,0,0,0,1.514-.02q.83-.078,1.631-.1.02.1-.02.127t-.02.107a1.846,1.846,0,0,1,.273.244q.137.146.273.283a1.478,1.478,0,0,0,.283.225.542.542,0,0,0,.342.068,1.166,1.166,0,0,1,.107.342.713.713,0,0,1-.049.381q-.313.215-.625.439a5.174,5.174,0,0,1-.654.4,3.876,3.876,0,0,1-.723.283,2.707,2.707,0,0,1-.85.088h-.146a.236.236,0,0,1-.127-.059.655.655,0,0,1-.439.059.655.655,0,0,0-.439.059A1.153,1.153,0,0,0,83-4.5a1.538,1.538,0,0,1-.537-.068,6.759,6.759,0,0,0-.566.879,7.711,7.711,0,0,0-.449,1,6,6,0,0,0,1.1.078q.439-.02.83-.068l.8-.1a7.14,7.14,0,0,1,1.035-.029,2.589,2.589,0,0,1,.928-.283,4.871,4.871,0,0,0,.986-.225.634.634,0,0,1,.273.205q.117.146.225.273a1.829,1.829,0,0,0,.225.225.374.374,0,0,0,.293.078.411.411,0,0,1,.107.186q.029.107.049.205a.425.425,0,0,0,.068.166.156.156,0,0,0,.166.049,2.942,2.942,0,0,1-.674.986,2.614,2.614,0,0,1-.869.518,6.129,6.129,0,0,1-1.084.273q-.6.1-1.318.234A.486.486,0,0,1,84.3.068.707.707,0,0,0,84.023.02q-.449.1-1.074.176a8.215,8.215,0,0,1-1.27.059,5.783,5.783,0,0,1-1.23-.166,2.009,2.009,0,0,1-.957-.518.639.639,0,0,1-.205-.322.434.434,0,0,0-.264-.283,5.314,5.314,0,0,0-.078-.566q-.059-.313-.117-.654T78.74-2.93a2.035,2.035,0,0,1,.029-.605,1.225,1.225,0,0,1,.244-.527.587.587,0,0,0,.127-.508.135.135,0,0,0,.117-.107q.02-.088.156-.068.117-.352.254-.664t.283-.605q.146-.293.293-.6t.283-.674a1.611,1.611,0,0,1-.4-.557,3.075,3.075,0,0,1-.186-.605q-.059-.3-.1-.625a4.041,4.041,0,0,0-.137-.654,1.675,1.675,0,0,1,.479-.479,2.846,2.846,0,0,1,.615-.3,5.288,5.288,0,0,1,.723-.2q.391-.078.82-.176.781-.254,1.4-.391t1.211-.225q.6-.088,1.24-.166t1.465-.234a.493.493,0,0,0,.332.176q.078-.176.186-.107t.088-.107a1.858,1.858,0,0,0,.5.557A3.226,3.226,0,0,0,89.434-11Zm4.922-2.441a2.339,2.339,0,0,1-.049.43q-.049.254-.088.508a1.87,1.87,0,0,0-.02.459.281.281,0,0,0,.176.264,12.531,12.531,0,0,0-.479,1.738q-.127.7-.215,1.338t-.225,1.338a13.046,13.046,0,0,1-.488,1.719,1.841,1.841,0,0,1-.527.869,1.061,1.061,0,0,1-.664.244,1.547,1.547,0,0,1-.723-.2,5.08,5.08,0,0,1-.684-.43,3.76,3.76,0,0,1-.01-.908q.049-.537.127-1.123t.156-1.123q.078-.537.117-.908a2.183,2.183,0,0,0,.273-.352.933.933,0,0,0,.107-.293q.029-.156.049-.391t.1-.664a.67.67,0,0,0-.029-.381.506.506,0,0,1-.029-.322.249.249,0,0,1,.127-.117.179.179,0,0,0,.107-.137.759.759,0,0,0,.039-.4.548.548,0,0,1,.059-.361,3.955,3.955,0,0,0,.244-.5,1.407,1.407,0,0,0,.107-.713,2.49,2.49,0,0,0,.332-.312,3.762,3.762,0,0,1,.322-.322,1.592,1.592,0,0,1,.371-.244,1.152,1.152,0,0,1,.5-.1,1.92,1.92,0,0,1,.234.41q.078.2.146.371a1.393,1.393,0,0,0,.186.332A.972.972,0,0,0,94.355-13.437ZM92.422-2.324a2.912,2.912,0,0,1,.059.293q.02.137.039.293A7.021,7.021,0,0,1,92.266-1q-.059.137-.078.176a.15.15,0,0,0-.02.059.1.1,0,0,0,.02.049.4.4,0,0,1,.02.166l-.1.234a.779.779,0,0,1-.225.215,2.023,2.023,0,0,1-.264.137.787.787,0,0,1-.127.068.339.339,0,0,0-.107.068L91.328.41l-.273.039a2.356,2.356,0,0,1-.566.078h-.215Q90.039.312,89.9.2A1.885,1.885,0,0,0,89.59-.02a1.871,1.871,0,0,1-.254-.645.837.837,0,0,0-.1-.332l-.273-.273.234-.176-.234-.371q.234-.176.352-.254a1.34,1.34,0,0,0,.205-.166,1.793,1.793,0,0,0,.186-.225q.1-.137.313-.449l.176-.254.234.137a1.207,1.207,0,0,0,.361.107q.264.049.459.088a4.425,4.425,0,0,0,.615.146.925.925,0,0,1,.479.205Z" transform="translate(9.2 22.82)" fill="#fff"/>
  </g>
</svg>
