<svg width="259.296" height="27.747" viewBox="0 0 259.296 27.747">
  <g id="svgGroup" stroke-linecap="round" fill-rule="evenodd" font-size="9pt" stroke="#000" stroke-width="0.25mm" fill="none" style="stroke:#000;stroke-width:0.25mm;fill:none">
    <path d="M 12.429 0.844 L 12.534 1.336 A 0.816 0.816 0 0 0 12.585 1.471 Q 12.653 1.609 12.763 1.67 A 1.034 1.034 0 0 0 12.848 1.712 Q 12.951 1.758 13.027 1.758 A 8.519 8.519 0 0 1 13.352 1.839 Q 13.529 1.888 13.683 1.939 A 4.691 4.691 0 0 1 13.818 1.986 A 2.74 2.74 0 0 0 14.389 2.127 A 3.162 3.162 0 0 0 14.538 2.145 A 8.303 8.303 0 0 1 14.802 2.566 A 3.274 3.274 0 0 0 15.009 2.88 A 2.905 2.905 0 0 0 15.066 2.953 Q 15.769 3.973 16.226 4.922 A 2.262 2.262 0 0 1 16.454 5.915 Q 16.454 6.434 16.226 6.996 L 16.261 7.383 A 1.206 1.206 0 0 1 16.357 7.541 Q 16.401 7.628 16.421 7.71 A 0.559 0.559 0 0 1 16.437 7.84 A 1.796 1.796 0 0 1 16.431 7.981 Q 16.419 8.122 16.388 8.315 A 7.267 7.267 0 0 1 16.366 8.437 A 7.63 7.63 0 0 0 16.336 8.732 A 9.778 9.778 0 0 0 16.314 9.053 Q 16.296 9.387 16.402 9.773 L 16.648 10.055 Q 17.21 10.336 17.738 10.336 Q 18.441 10.336 19.003 10.02 A 21.734 21.734 0 0 0 19.791 9.555 A 18.746 18.746 0 0 0 20.058 9.387 A 7.198 7.198 0 0 1 20.409 9.146 Q 20.601 9.023 20.779 8.93 A 2.907 2.907 0 0 1 21.148 8.765 A 2.312 2.312 0 0 1 21.429 8.684 A 60.315 60.315 0 0 1 22.131 8.025 Q 22.472 7.71 22.783 7.436 A 67.535 67.535 0 0 1 23.982 6.398 A 73.717 73.717 0 0 1 24.066 6.328 Q 25.331 5.309 26.527 4.131 A 8.041 8.041 0 0 0 27.991 2.138 A 9.882 9.882 0 0 0 28.425 1.195 A 1.581 1.581 0 0 1 29.213 0.951 A 1.912 1.912 0 0 1 29.304 0.949 A 2.64 2.64 0 0 1 30.181 1.103 A 3.042 3.042 0 0 1 30.288 1.143 Q 30.781 1.336 31.273 1.582 Q 31.361 1.641 31.436 1.675 A 0.741 0.741 0 0 0 31.466 1.688 Q 31.542 1.718 31.63 1.774 A 1.557 1.557 0 0 1 31.659 1.793 A 0.918 0.918 0 0 0 31.845 2.344 A 1.285 1.285 0 0 0 31.976 2.496 A 4.91 4.91 0 0 0 32.048 2.553 Q 32.167 2.644 32.222 2.672 L 32.363 2.742 A 11.148 11.148 0 0 1 32.561 2.869 Q 32.716 2.971 32.837 3.059 A 0.871 0.871 0 0 1 33.086 3.343 A 1.09 1.09 0 0 1 33.136 3.445 A 3.148 3.148 0 0 0 33.572 4.309 A 2.703 2.703 0 0 0 34.191 4.922 A 1.711 1.711 0 0 0 34.163 5.228 A 1.628 1.628 0 0 0 34.226 5.678 Q 34.331 6.047 34.472 6.398 A 1.802 1.802 0 0 1 34.533 6.534 A 1.322 1.322 0 0 1 34.577 6.662 A 2.18 2.18 0 0 0 34.608 6.761 Q 34.624 6.806 34.642 6.856 A 4.682 4.682 0 0 0 34.683 6.961 L 33.909 6.891 L 34.015 7.664 A 2.509 2.509 0 0 1 34.052 8.075 Q 34.056 8.506 33.927 9 A 7.381 7.381 0 0 1 33.801 9.431 Q 33.729 9.65 33.651 9.833 A 3.005 3.005 0 0 1 33.488 10.16 A 46.429 46.429 0 0 1 33.518 10.66 Q 33.558 11.369 33.558 11.83 A 9.471 9.471 0 0 1 33.533 12.53 A 7.611 7.611 0 0 1 33.488 12.973 Q 33.417 13.5 33.259 13.975 A 8.61 8.61 0 0 1 33.04 14.557 A 10.797 10.797 0 0 1 32.855 14.977 A 15.734 15.734 0 0 1 32.877 15.804 Q 32.877 17.996 32.24 19.863 A 47.488 47.488 0 0 1 31.063 22.965 A 41.056 41.056 0 0 1 30.605 24.012 A 9.226 9.226 0 0 1 30.473 24.306 A 7.62 7.62 0 0 1 30.394 24.469 A 3.239 3.239 0 0 0 30.227 24.864 A 2.973 2.973 0 0 0 30.218 24.891 A 5.417 5.417 0 0 0 29.805 25.02 A 4.347 4.347 0 0 0 29.515 25.137 Q 29.199 25.277 28.917 25.453 A 5.081 5.081 0 0 1 28.349 25.767 A 4.435 4.435 0 0 1 28.144 25.857 A 2.115 2.115 0 0 1 27.335 26.016 A 3.826 3.826 0 0 1 26.03 24.27 Q 25.774 23.618 25.668 22.801 A 9.364 9.364 0 0 1 25.595 21.762 Q 25.559 19.693 26.173 16.85 A 44.038 44.038 0 0 1 26.878 14.062 Q 27.119 13.891 27.091 13.552 A 0.933 0.933 0 0 0 27.089 13.535 L 27.089 13.148 L 26.738 13.113 A 1.514 1.514 0 0 0 26.571 13.122 A 1.131 1.131 0 0 0 26.421 13.148 A 0.191 0.191 0 0 0 26.325 13.21 Q 26.27 13.272 26.231 13.391 A 1.116 1.116 0 0 0 26.21 13.465 Q 25.085 14.273 23.767 15.135 A 29.965 29.965 0 0 1 21.042 16.717 A 19.507 19.507 0 0 1 18.177 17.912 A 9.745 9.745 0 0 1 16.388 18.32 A 8.269 8.269 0 0 1 15.347 18.387 A 5.334 5.334 0 0 1 11.008 16.327 A 8.272 8.272 0 0 1 10.038 14.801 L 9.722 14.168 L 9.37 14.73 Q 9.265 14.906 9.001 15.416 Q 8.746 15.909 8.491 16.551 A 17.613 17.613 0 0 0 8.474 16.594 A 13.43 13.43 0 0 0 8.017 17.965 A 4.37 4.37 0 0 0 7.92 18.398 Q 7.85 18.816 7.889 19.16 A 2.014 2.014 0 0 0 7.894 19.195 A 8.139 8.139 0 0 0 7.322 19.777 A 9.57 9.57 0 0 0 7.068 20.074 A 3.027 3.027 0 0 0 6.488 21.199 A 0.678 0.678 0 0 0 6.451 21.322 Q 6.441 21.375 6.441 21.426 A 0.494 0.494 0 0 0 6.452 21.533 Q 6.488 21.691 6.558 21.867 A 1.104 1.104 0 0 1 6.533 21.994 Q 6.497 22.13 6.431 22.204 A 0.309 0.309 0 0 1 6.417 22.219 Q 6.312 22.324 6.171 22.43 A 10.718 10.718 0 0 0 5.82 22.799 Q 5.644 22.992 5.503 23.238 A 2.672 2.672 0 0 0 5.398 23.678 A 11.45 11.45 0 0 1 5.367 23.868 Q 5.352 23.954 5.337 24.032 A 6.6 6.6 0 0 1 5.327 24.082 Q 5.327 24.373 5.268 24.525 A 0.361 0.361 0 0 1 5.222 24.609 A 34.54 34.54 0 0 1 5.052 24.962 Q 4.821 25.433 4.633 25.774 A 11.93 11.93 0 0 1 4.607 25.822 A 5.125 5.125 0 0 1 4.444 26.097 Q 4.266 26.374 4.097 26.543 A 1.635 1.635 0 0 1 3.886 26.722 Q 3.753 26.816 3.616 26.867 A 1.002 1.002 0 0 1 3.587 26.877 Q 3.34 26.959 3.016 26.965 A 2.748 2.748 0 0 1 2.972 26.965 Q 2.62 26.965 1.882 26.859 A 4.195 4.195 0 0 1 1.417 26.258 Q 1.219 25.952 1.04 25.578 A 8.189 8.189 0 0 1 0.88 25.225 A 10.974 10.974 0 0 1 0.249 23.193 A 12.191 12.191 0 0 1 0.212 23.01 A 11.458 11.458 0 0 1 0 20.823 A 11.274 11.274 0 0 1 0.001 20.654 A 6.356 6.356 0 0 1 0.111 19.542 A 4.889 4.889 0 0 1 0.406 18.562 A 0.099 0.099 0 0 1 0.411 18.542 Q 0.442 18.443 0.66 17.912 A 94.19 94.19 0 0 1 0.74 17.719 A 170.474 170.474 0 0 1 0.919 17.287 Q 1.186 16.644 1.549 15.785 A 505.684 505.684 0 0 1 1.601 15.662 Q 2.128 14.414 2.796 12.885 A 252.585 252.585 0 0 1 4.132 9.879 A 76.531 76.531 0 0 1 4.787 8.468 A 58.854 58.854 0 0 1 5.415 7.189 Q 6.031 5.977 6.488 5.309 Q 6.804 4.816 7.068 4.359 A 25.283 25.283 0 0 1 7.327 3.92 A 20.475 20.475 0 0 1 7.577 3.516 A 1188.338 1188.338 0 0 1 7.951 2.905 A 950.923 950.923 0 0 1 8.298 2.338 Q 8.632 1.793 9.036 1.354 A 5.124 5.124 0 0 1 9.933 0.58 A 4.357 4.357 0 0 1 10.478 0.268 Q 10.758 0.132 11.084 0.015 A 7.186 7.186 0 0 1 11.128 0 A 6.327 6.327 0 0 1 11.522 0.179 A 4.622 4.622 0 0 1 11.866 0.369 Q 12.183 0.562 12.429 0.844 Z M 55.847 6.082 L 56.374 5.977 A 3.084 3.084 0 0 1 56.885 6.513 A 3.721 3.721 0 0 1 57.06 6.768 A 2.957 2.957 0 0 1 57.464 7.77 Q 57.509 7.996 57.509 8.212 A 1.96 1.96 0 0 1 57.429 8.771 A 1.153 1.153 0 0 1 57.046 9.338 A 1.689 1.689 0 0 1 56.761 9.527 Q 56.79 9.674 56.783 9.759 A 0.288 0.288 0 0 1 56.779 9.791 Q 56.761 9.879 56.726 9.949 A 0.339 0.339 0 0 0 56.697 10.028 A 0.287 0.287 0 0 0 56.691 10.09 A 0.143 0.143 0 0 0 56.698 10.132 Q 56.719 10.198 56.796 10.301 A 2.968 2.968 0 0 0 55.967 11.277 A 3.862 3.862 0 0 0 55.741 11.777 Q 55.459 12.541 55.381 13.169 A 3.909 3.909 0 0 0 55.355 13.465 A 10.504 10.504 0 0 1 56.037 12.842 A 11.974 11.974 0 0 1 56.286 12.639 Q 56.796 12.234 57.341 11.848 A 98.661 98.661 0 0 1 58.139 11.287 A 87.941 87.941 0 0 1 58.396 11.109 A 13.759 13.759 0 0 0 58.999 10.67 A 11.484 11.484 0 0 0 59.327 10.406 A 17.574 17.574 0 0 1 60.396 9.506 Q 60.916 9.104 61.417 8.789 A 10.722 10.722 0 0 1 61.56 8.701 A 49.14 49.14 0 0 0 62.663 8.011 A 60.649 60.649 0 0 0 63.827 7.242 A 1.586 1.586 0 0 1 63.942 7.218 Q 64.086 7.193 64.191 7.207 A 0.422 0.422 0 0 1 64.267 7.225 A 5.656 5.656 0 0 1 64.472 7.297 A 6.835 6.835 0 0 1 64.601 7.348 A 0.547 0.547 0 0 0 64.595 7.264 Q 64.574 7.129 64.478 7.102 Q 64.355 7.066 64.39 6.82 Q 64.876 6.691 65.242 6.517 A 3.493 3.493 0 0 0 65.304 6.486 A 8.924 8.924 0 0 1 65.815 6.251 A 10.751 10.751 0 0 1 66.148 6.117 Q 66.464 6.434 66.745 6.768 A 1.133 1.133 0 0 0 67.321 7.13 A 1.532 1.532 0 0 0 67.519 7.172 A 2.064 2.064 0 0 0 67.661 7.435 Q 67.745 7.567 67.843 7.665 A 1.074 1.074 0 0 0 67.941 7.752 A 13.459 13.459 0 0 0 68.433 8.121 Q 68.679 8.297 68.872 8.543 A 0.841 0.841 0 0 1 68.991 8.756 Q 69.078 8.979 69.101 9.316 A 81.595 81.595 0 0 0 68.956 9.571 A 99.133 99.133 0 0 0 68.802 9.844 A 3.716 3.716 0 0 0 68.658 10.131 Q 68.578 10.306 68.503 10.512 A 13.928 13.928 0 0 1 67.371 11.431 A 12.366 12.366 0 0 1 67.079 11.637 Q 66.359 12.129 65.62 12.586 A 85.778 85.778 0 0 1 64.109 13.5 A 13.711 13.711 0 0 0 63.128 14.14 A 16.757 16.757 0 0 0 62.527 14.59 Q 62.351 14.836 62.087 15.029 A 21.943 21.943 0 0 1 61.542 15.416 A 6.25 6.25 0 0 0 61.015 15.82 A 1.566 1.566 0 0 0 60.628 16.312 Q 60.523 16.348 60.417 16.348 A 0.663 0.663 0 0 0 60.207 16.383 Q 60.101 16.629 59.872 16.77 A 0.653 0.653 0 0 0 59.574 17.156 A 5.096 5.096 0 0 0 60.096 18.04 A 3.792 3.792 0 0 0 60.945 18.879 Q 61.788 19.477 62.843 19.74 Q 63.898 20.004 65.128 20.021 A 174.443 174.443 0 0 0 67.033 20.038 A 197.076 197.076 0 0 0 67.695 20.039 A 0.256 0.256 0 0 0 67.746 20.021 Q 67.829 19.98 67.819 19.888 A 0.206 0.206 0 0 0 67.818 19.881 A 0.162 0.162 0 0 1 67.816 19.868 Q 67.81 19.768 67.952 19.789 A 0.48 0.48 0 0 1 67.976 19.793 Q 68.82 20.074 69.277 20.584 A 7.492 7.492 0 0 0 69.846 21.152 A 9.504 9.504 0 0 0 70.366 21.586 A 4.289 4.289 0 0 1 70.177 22.666 A 3.305 3.305 0 0 1 69.558 23.801 A 4.778 4.778 0 0 1 68.377 24.803 A 6.178 6.178 0 0 1 67.589 25.207 Q 66.464 25.254 65.519 25.207 A 15.176 15.176 0 0 1 64.618 25.137 A 8.781 8.781 0 0 1 62.105 24.469 A 0.18 0.18 0 0 1 62.061 24.436 Q 62.023 24.4 61.986 24.334 A 0.909 0.909 0 0 1 61.964 24.293 Q 61.918 24.201 61.873 24.14 A 0.516 0.516 0 0 0 61.824 24.082 A 0.837 0.837 0 0 0 61.587 24.007 Q 61.498 23.992 61.397 23.992 A 1.424 1.424 0 0 0 61.314 23.994 A 2.023 2.023 0 0 1 61.226 23.997 Q 60.993 24.001 60.819 23.946 A 0.9 0.9 0 0 1 60.804 23.941 Q 60.523 23.801 59.925 23.396 Q 59.327 22.992 58.835 22.641 Q 58.202 22.148 57.64 21.656 A 6.977 6.977 0 0 1 56.736 20.706 A 6.429 6.429 0 0 1 56.656 20.602 Q 56.55 20.461 56.374 20.443 A 0.972 0.972 0 0 1 56.178 20.404 A 0.819 0.819 0 0 1 56.058 20.355 Q 55.038 20.988 54.335 21.937 A 35.493 35.493 0 0 0 52.999 23.871 A 22.174 22.174 0 0 1 51.663 25.734 A 4.461 4.461 0 0 1 49.87 27.07 Q 49.554 27.07 49.308 26.965 A 2.209 2.209 0 0 1 48.851 26.701 Q 48.64 26.543 48.429 26.402 A 1.622 1.622 0 0 0 47.972 26.191 Q 47.972 25.77 47.814 25.418 A 18.738 18.738 0 0 0 47.576 24.91 A 16.453 16.453 0 0 0 47.497 24.75 A 3.111 3.111 0 0 1 47.347 24.4 A 2.514 2.514 0 0 1 47.269 24.135 A 0.646 0.646 0 0 1 47.251 23.986 Q 47.251 23.84 47.321 23.698 A 0.896 0.896 0 0 1 47.409 23.555 A 1.904 1.904 0 0 0 47.244 23.409 Q 47.057 23.261 46.777 23.098 A 1.03 1.03 0 0 0 46.866 22.996 Q 46.983 22.844 46.97 22.711 A 1.272 1.272 0 0 0 46.899 22.403 A 1.436 1.436 0 0 0 46.882 22.359 A 2.779 2.779 0 0 1 46.801 22.126 A 3.421 3.421 0 0 1 46.759 21.973 A 0.473 0.473 0 0 1 46.745 21.858 Q 46.745 21.704 46.847 21.551 A 1.099 1.099 0 0 0 46.989 21.541 Q 47.115 21.524 47.269 21.48 A 4.223 4.223 0 0 1 47.203 21.39 Q 47.063 21.194 47.075 21.148 A 0.023 0.023 0 0 1 47.075 21.146 Q 47.092 21.097 47 21.001 A 0.83 0.83 0 0 0 46.988 20.988 Q 46.917 20.777 47.058 20.725 A 2.928 2.928 0 0 0 47.339 20.602 A 15.795 15.795 0 0 1 47.66 18.447 A 13.39 13.39 0 0 1 47.937 17.402 A 33.935 33.935 0 0 1 48.956 14.555 A 152.306 152.306 0 0 0 50.064 11.777 A 19.588 19.588 0 0 0 50.772 9.549 A 22.58 22.58 0 0 0 50.96 8.754 Q 51.347 8.367 51.575 7.84 A 21.263 21.263 0 0 1 52.068 6.785 A 10.287 10.287 0 0 1 52.665 5.748 A 2.379 2.379 0 0 1 53.365 5.058 A 2.923 2.923 0 0 1 53.597 4.922 A 2.1 2.1 0 0 1 54.164 5.039 A 1.844 1.844 0 0 1 54.476 5.186 Q 54.811 5.384 55.278 5.384 A 2.355 2.355 0 0 0 55.425 5.379 Q 55.531 5.555 55.618 5.73 Q 55.706 5.906 55.847 6.082 Z M 89.258 6.777 A 3.004 3.004 0 0 0 89.245 6.68 A 6.438 6.438 0 0 1 89.121 6.626 A 5.751 5.751 0 0 1 88.033 5.994 Q 87.488 5.59 87.136 4.992 Q 87.171 5.309 86.978 5.186 Q 86.814 5.081 86.688 5.293 A 0.817 0.817 0 0 0 86.644 5.379 A 0.587 0.587 0 0 1 86.407 5.326 Q 86.233 5.249 86.046 5.062 A 54.567 54.567 0 0 1 85.637 5.139 Q 85.033 5.249 84.485 5.334 A 32.211 32.211 0 0 1 83.409 5.484 A 94.834 94.834 0 0 0 82.835 5.556 A 84.762 84.762 0 0 0 81.177 5.783 A 30.72 30.72 0 0 0 78.997 6.187 Q 77.89 6.434 76.484 6.891 Q 75.71 7.066 75.007 7.207 A 10.694 10.694 0 0 0 74.495 7.322 A 8.88 8.88 0 0 0 73.706 7.559 Q 73.109 7.77 72.599 8.104 A 3.015 3.015 0 0 0 71.738 8.965 Q 71.913 9.562 71.984 10.143 Q 72.054 10.723 72.159 11.268 A 5.142 5.142 0 0 0 72.188 11.404 A 5.599 5.599 0 0 0 72.493 12.357 A 2.628 2.628 0 0 0 72.749 12.825 A 3.183 3.183 0 0 0 73.214 13.359 Q 72.968 14.027 72.704 14.572 A 92.025 92.025 0 0 1 72.177 15.645 Q 71.913 16.172 71.667 16.734 A 12.874 12.874 0 0 0 71.546 17.02 A 14.578 14.578 0 0 0 71.21 17.93 A 0.758 0.758 0 0 0 71.204 17.929 Q 70.964 17.896 70.929 18.053 Q 70.894 18.211 70.718 18.246 Q 70.824 18.738 70.49 19.16 A 2.205 2.205 0 0 0 70.05 20.109 A 3.003 3.003 0 0 0 70.012 20.324 Q 69.977 20.579 69.98 20.86 A 4.455 4.455 0 0 0 69.997 21.199 A 14.961 14.961 0 0 0 70.156 22.412 A 84.751 84.751 0 0 0 70.208 22.716 A 74.492 74.492 0 0 0 70.366 23.59 A 13.056 13.056 0 0 1 70.373 23.625 Q 70.473 24.167 70.507 24.609 Q 70.894 24.785 70.982 25.119 Q 71.07 25.453 71.351 25.699 A 3.288 3.288 0 0 0 72.143 26.281 A 4.11 4.11 0 0 0 73.074 26.631 A 9.64 9.64 0 0 0 73.339 26.693 A 10.534 10.534 0 0 0 75.288 26.93 A 15.274 15.274 0 0 0 75.751 26.937 A 14.68 14.68 0 0 0 77.574 26.824 A 31.451 31.451 0 0 0 78.083 26.756 Q 78.494 26.698 78.856 26.635 A 16.438 16.438 0 0 0 79.507 26.508 A 1.525 1.525 0 0 1 79.748 26.526 A 1.106 1.106 0 0 1 79.999 26.596 Q 80.21 26.684 80.527 26.613 A 114.724 114.724 0 0 1 81.77 26.385 A 85.361 85.361 0 0 1 82.9 26.191 A 12.638 12.638 0 0 0 83.739 26.025 A 10.059 10.059 0 0 0 84.851 25.699 Q 85.73 25.383 86.415 24.768 A 3.638 3.638 0 0 0 86.706 24.474 Q 86.971 24.175 87.21 23.786 A 7.259 7.259 0 0 0 87.628 22.992 A 0.607 0.607 0 0 1 87.587 22.998 Q 87.408 23.015 87.329 22.904 A 0.678 0.678 0 0 1 87.254 22.766 A 0.881 0.881 0 0 1 87.206 22.605 A 4.918 4.918 0 0 0 87.183 22.494 A 5.82 5.82 0 0 0 87.118 22.236 Q 87.066 22.043 86.925 21.902 A 1.011 1.011 0 0 1 86.912 21.904 Q 86.604 21.934 86.398 21.762 A 2.997 2.997 0 0 1 86.293 21.671 A 3.401 3.401 0 0 1 85.993 21.357 A 21.192 21.192 0 0 1 85.796 21.12 A 25.392 25.392 0 0 1 85.589 20.865 A 1.371 1.371 0 0 0 85.486 20.75 A 1.092 1.092 0 0 0 85.097 20.496 A 7.79 7.79 0 0 1 84.455 20.688 A 9.454 9.454 0 0 1 83.322 20.9 A 5.547 5.547 0 0 0 82.526 21.059 A 4.104 4.104 0 0 0 81.652 21.41 A 21.187 21.187 0 0 0 81.338 21.403 Q 80.421 21.388 79.788 21.463 A 247.689 247.689 0 0 0 78.347 21.639 Q 77.644 21.727 76.853 21.762 A 5.566 5.566 0 0 1 76.82 21.763 Q 76.287 21.784 75.574 21.71 A 16.401 16.401 0 0 1 74.866 21.621 A 15.202 15.202 0 0 1 74.869 21.614 A 13.876 13.876 0 0 1 75.675 19.828 A 12.166 12.166 0 0 1 76.695 18.246 A 2.342 2.342 0 0 0 77.094 18.34 Q 77.306 18.371 77.542 18.371 A 3.709 3.709 0 0 0 77.661 18.369 A 3.033 3.033 0 0 1 77.759 18.368 Q 77.985 18.368 78.183 18.403 A 1.713 1.713 0 0 1 78.593 18.527 Q 78.874 18.352 79.384 18.422 A 2.265 2.265 0 0 0 79.508 18.436 Q 79.757 18.456 79.945 18.411 A 0.775 0.775 0 0 0 80.175 18.316 Q 80.272 18.389 80.344 18.412 A 0.201 0.201 0 0 0 80.404 18.422 L 80.667 18.422 Q 81.065 18.438 81.427 18.404 A 4.325 4.325 0 0 0 82.197 18.264 Q 82.882 18.07 83.497 17.754 A 9.313 9.313 0 0 0 84.675 17.033 A 65.765 65.765 0 0 1 85.8 16.242 Q 85.902 15.987 85.902 15.74 A 1.175 1.175 0 0 0 85.888 15.557 A 2.356 2.356 0 0 0 85.873 15.474 A 2.068 2.068 0 0 0 85.695 14.941 A 1.32 1.32 0 0 1 85.691 14.942 Q 85.342 14.976 85.079 14.818 A 2.376 2.376 0 0 1 84.884 14.687 A 2.856 2.856 0 0 1 84.57 14.414 A 20.562 20.562 0 0 1 84.077 13.904 A 3.859 3.859 0 0 0 83.862 13.69 A 2.958 2.958 0 0 0 83.585 13.465 Q 83.566 13.388 83.578 13.338 A 0.113 0.113 0 0 1 83.62 13.271 A 0.1 0.1 0 0 0 83.649 13.238 Q 83.676 13.185 83.663 13.085 A 0.698 0.698 0 0 0 83.656 13.043 A 42.349 42.349 0 0 0 80.72 13.219 Q 79.226 13.359 77.995 13.254 A 0.718 0.718 0 0 1 77.964 13.18 Q 77.903 13.016 77.905 12.791 A 1.787 1.787 0 0 1 77.908 12.709 A 1.408 1.408 0 0 0 77.909 12.635 A 1.406 1.406 0 0 0 77.784 12.059 Q 78.101 11.953 78.417 11.865 Q 78.734 11.777 78.945 11.566 Q 79.444 11.616 79.775 11.542 A 1.145 1.145 0 0 0 80.017 11.461 Q 80.294 11.329 80.622 11.395 A 1.389 1.389 0 0 1 80.843 11.461 A 7.903 7.903 0 0 1 81.57 11.07 A 6.434 6.434 0 0 1 83.181 10.547 A 333.496 333.496 0 0 1 85.484 10.143 Q 86.609 9.949 87.575 9.51 A 2.987 2.987 0 0 0 87.931 9.318 Q 88.681 8.846 89.281 7.875 A 3.33 3.33 0 0 1 89.257 7.789 Q 89.226 7.669 89.216 7.584 A 0.641 0.641 0 0 1 89.21 7.506 A 1.59 1.59 0 0 1 89.213 7.416 A 1.286 1.286 0 0 1 89.228 7.277 A 8.912 8.912 0 0 0 89.245 7.167 A 11.167 11.167 0 0 0 89.263 7.049 A 0.559 0.559 0 0 0 89.267 7.004 Q 89.273 6.914 89.258 6.777 Z M 102.077 22.605 L 102.464 22.605 Q 102.3 22.09 102.3 21.629 A 2.401 2.401 0 0 1 102.341 21.182 A 14.241 14.241 0 0 1 102.64 19.916 A 18.188 18.188 0 0 0 102.891 18.939 A 16.223 16.223 0 0 0 102.939 18.721 A 1.887 1.887 0 0 0 102.98 18.328 Q 102.98 17.93 102.816 17.508 A 0.326 0.326 0 0 0 102.857 17.529 Q 102.986 17.583 103.061 17.455 A 0.377 0.377 0 0 0 103.079 17.42 A 1.477 1.477 0 0 0 103.14 17.26 Q 103.187 17.115 103.22 16.928 Q 103.26 16.704 103.26 16.46 A 3.135 3.135 0 0 0 103.255 16.295 A 7.663 7.663 0 0 0 103.241 16.08 Q 103.233 15.984 103.224 15.902 A 3.159 3.159 0 0 0 103.202 15.75 A 13.601 13.601 0 0 0 103.923 13.5 A 57.466 57.466 0 0 0 104.398 11.197 A 38.698 38.698 0 0 1 104.872 8.982 A 12.138 12.138 0 0 1 105.493 7.11 A 11.153 11.153 0 0 1 105.558 6.961 Q 106.05 6.891 106.595 7.084 Q 107.084 7.258 107.276 7.502 A 0.65 0.65 0 0 1 107.316 7.559 A 9.382 9.382 0 0 0 109.143 5.668 A 10.505 10.505 0 0 0 109.249 5.52 Q 110.093 4.324 110.954 3.182 Q 111.816 2.039 112.906 1.16 A 4.725 4.725 0 0 1 114.653 0.284 A 6.195 6.195 0 0 1 115.613 0.105 A 49.834 49.834 0 0 0 116.509 0.725 A 66.834 66.834 0 0 0 117.511 1.389 A 5.83 5.83 0 0 1 119.234 3.094 Q 119.515 3.27 119.779 3.463 A 8.876 8.876 0 0 0 120.324 3.832 L 120.324 4.359 A 4.156 4.156 0 0 1 121.15 5.432 A 10.998 10.998 0 0 1 121.747 6.732 Q 122.011 7.418 122.257 8.121 A 9.841 9.841 0 0 0 122.647 9.077 A 8.524 8.524 0 0 0 122.82 9.422 A 1.248 1.248 0 0 0 122.783 9.553 Q 122.763 9.645 122.763 9.726 A 0.592 0.592 0 0 0 122.767 9.791 Q 122.784 9.949 122.837 10.107 Q 122.89 10.266 122.925 10.459 A 1.919 1.919 0 0 1 122.947 10.616 Q 122.96 10.758 122.96 10.934 A 5.833 5.833 0 0 1 122.692 12.329 A 4.285 4.285 0 0 1 121.747 13.939 A 8.346 8.346 0 0 1 119.521 15.616 A 9.669 9.669 0 0 1 119.146 15.803 A 22.644 22.644 0 0 1 116.108 16.969 A 24.94 24.94 0 0 1 115.894 17.033 A 32.473 32.473 0 0 0 114.056 17.634 A 25.454 25.454 0 0 0 112.765 18.141 Q 112.765 18.281 112.923 18.281 Q 113.077 18.281 113.015 18.48 A 0.624 0.624 0 0 1 113.011 18.492 A 77.135 77.135 0 0 1 113.509 18.793 Q 114.211 19.222 114.646 19.512 Q 115.226 19.898 115.736 20.162 A 5.773 5.773 0 0 0 116.486 20.483 A 6.824 6.824 0 0 0 116.861 20.602 Q 117.476 20.777 118.566 21.023 A 112.317 112.317 0 0 1 119.081 21.141 Q 119.582 21.257 119.956 21.349 A 31.45 31.45 0 0 1 120.271 21.428 Q 120.845 21.575 121.312 21.662 A 10.789 10.789 0 0 0 121.378 21.674 A 19.033 19.033 0 0 0 122.021 21.777 A 22.954 22.954 0 0 0 122.433 21.832 A 62.75 62.75 0 0 0 122.738 21.869 Q 123.078 21.91 123.521 21.96 A 202.817 202.817 0 0 0 123.945 22.008 Q 124.331 22.395 124.577 22.922 A 4.769 4.769 0 0 1 124.876 23.746 A 4.271 4.271 0 0 1 124.929 23.977 Q 124.999 24.328 124.999 24.656 A 2.916 2.916 0 0 1 124.982 24.979 Q 124.936 25.393 124.742 25.66 A 1.037 1.037 0 0 1 124.683 25.734 A 0.198 0.198 0 0 0 124.708 25.794 Q 124.757 25.871 124.876 25.857 Q 125.034 25.84 125.21 25.875 Q 124.964 26.051 124.788 26.297 L 124.437 26.789 Q 124.261 27.035 124.033 27.246 A 0.925 0.925 0 0 1 123.605 27.467 A 1.212 1.212 0 0 1 123.452 27.492 Q 122.187 27.984 120.218 27.527 A 24.414 24.414 0 0 1 118.881 27.173 Q 117.345 26.723 115.326 25.961 A 78.005 78.005 0 0 1 115.191 25.91 A 44.363 44.363 0 0 1 114.218 25.536 Q 113.353 25.191 112.73 24.891 Q 111.781 24.434 111.077 23.994 Q 110.374 23.555 109.777 23.045 A 44.686 44.686 0 0 1 109.304 22.635 Q 109.096 22.453 108.872 22.253 A 78.096 78.096 0 0 1 108.406 21.832 Q 108.3 21.867 108.283 21.973 A 0.182 0.182 0 0 1 108.255 22.044 Q 108.23 22.082 108.185 22.103 A 0.236 0.236 0 0 1 108.159 22.113 A 12.958 12.958 0 0 1 108.016 23.018 Q 107.927 23.467 107.812 23.845 A 5.724 5.724 0 0 1 107.615 24.398 A 7.15 7.15 0 0 1 107.111 25.37 A 9.545 9.545 0 0 1 106.542 26.191 A 2.343 2.343 0 0 0 106.407 26.17 Q 105.956 26.112 105.786 26.297 A 2.09 2.09 0 0 1 105.51 26.547 A 2.624 2.624 0 0 1 105.312 26.684 A 1.844 1.844 0 0 1 105.199 26.703 Q 104.962 26.735 104.82 26.681 A 0.375 0.375 0 0 1 104.784 26.666 A 2.183 2.183 0 0 1 104.564 26.54 A 1.849 1.849 0 0 1 104.468 26.473 A 3.348 3.348 0 0 0 104.299 26.354 A 4.214 4.214 0 0 0 104.152 26.262 A 0.471 0.471 0 0 0 104.036 26.214 Q 103.867 26.166 103.589 26.191 A 37.093 37.093 0 0 0 103.378 25.576 A 0.371 0.371 0 0 0 103.111 25.334 Q 102.988 25.299 102.816 25.312 A 1.771 1.771 0 0 0 102.866 25.131 Q 102.911 24.928 102.886 24.768 Q 102.851 24.539 102.781 24.346 A 4.062 4.062 0 0 1 102.661 23.955 A 4.415 4.415 0 0 1 102.658 23.941 A 0.601 0.601 0 0 1 102.64 23.812 Q 102.636 23.648 102.71 23.449 A 0.186 0.186 0 0 1 102.674 23.453 Q 102.54 23.453 102.428 23.252 A 1.07 1.07 0 0 1 102.394 23.186 A 5.562 5.562 0 0 0 102.077 22.605 Z M 186.312 20.074 A 0.627 0.627 0 0 0 185.889 20.379 A 0.797 0.797 0 0 0 185.855 20.443 A 9.708 9.708 0 0 0 185.591 21.059 A 10.798 10.798 0 0 1 185.468 21.362 A 8.569 8.569 0 0 1 185.345 21.639 A 0.585 0.585 0 0 1 185.266 21.766 A 0.361 0.361 0 0 1 184.976 21.902 A 1.057 1.057 0 0 1 184.877 22.241 A 0.97 0.97 0 0 1 184.783 22.395 A 5.785 5.785 0 0 0 184.484 22.834 A 1.837 1.837 0 0 0 184.273 23.326 Q 184.208 23.569 184.323 23.887 A 1.673 1.673 0 0 0 184.343 23.941 Q 184.062 24.152 183.991 24.539 A 11.966 11.966 0 0 1 183.876 25.099 A 10.588 10.588 0 0 1 183.833 25.277 A 1.561 1.561 0 0 1 183.695 25.639 A 1.324 1.324 0 0 1 183.534 25.875 A 0.538 0.538 0 0 1 183.321 26.022 Q 183.108 26.108 182.761 26.086 Q 182.657 26.224 182.724 26.261 A 0.069 0.069 0 0 0 182.726 26.262 A 0.103 0.103 0 0 1 182.763 26.295 Q 182.802 26.35 182.826 26.479 A 1.325 1.325 0 0 1 182.831 26.508 A 1.729 1.729 0 0 0 182.713 26.49 Q 182.414 26.457 182.251 26.561 A 0.984 0.984 0 0 1 182.013 26.669 Q 181.908 26.702 181.785 26.718 A 1.63 1.63 0 0 1 181.777 26.719 Q 181.109 26.508 180.669 25.98 A 6.344 6.344 0 0 1 179.949 24.904 A 7.056 7.056 0 0 1 179.896 24.803 Q 179.562 24.152 179.298 23.484 Q 179.072 22.91 178.858 22.466 A 10.253 10.253 0 0 0 178.788 22.324 A 1.754 1.754 0 0 0 178.851 21.923 Q 178.857 21.744 178.824 21.568 Q 178.753 21.199 178.577 20.953 A 474.914 474.914 0 0 1 180.379 17.174 A 580.746 580.746 0 0 1 182.339 13.148 A 281.532 281.532 0 0 0 186.206 4.957 Q 187.015 5.273 187.806 5.678 Q 188.597 6.082 189.247 6.609 Q 189.898 7.137 190.355 7.822 Q 190.812 8.508 190.952 9.352 A 0.764 0.764 0 0 1 190.931 9.409 Q 190.869 9.555 190.794 9.51 A 0.137 0.137 0 0 0 190.77 9.498 Q 190.696 9.472 190.636 9.562 A 2.633 2.633 0 0 1 190.692 9.634 Q 190.78 9.754 190.794 9.809 Q 190.812 9.879 190.794 9.949 A 0.472 0.472 0 0 0 190.785 9.998 Q 190.778 10.05 190.777 10.119 A 1.617 1.617 0 0 0 190.777 10.143 A 0.399 0.399 0 0 0 190.786 10.226 Q 190.809 10.33 190.882 10.477 A 0.449 0.449 0 0 0 190.848 10.469 Q 190.735 10.45 190.689 10.512 A 0.084 0.084 0 0 1 190.639 10.543 Q 190.583 10.557 190.482 10.52 A 0.778 0.778 0 0 1 190.46 10.512 A 2.108 2.108 0 0 1 190.518 10.696 Q 190.58 10.93 190.556 11.102 A 0.61 0.61 0 0 1 190.548 11.145 A 1.765 1.765 0 0 1 190.467 11.418 A 1.447 1.447 0 0 1 190.39 11.584 A 2.224 2.224 0 0 0 190.242 11.921 A 2.533 2.533 0 0 0 190.214 12.006 A 0.635 0.635 0 0 0 190.189 12.134 Q 190.174 12.302 190.231 12.52 A 1.897 1.897 0 0 0 190.249 12.586 A 0.336 0.336 0 0 0 190.19 12.591 Q 190.128 12.602 190.091 12.639 A 0.779 0.779 0 0 0 190.038 12.697 A 0.61 0.61 0 0 0 190.003 12.744 A 0.628 0.628 0 0 1 189.958 12.803 A 0.802 0.802 0 0 1 189.915 12.85 A 0.107 0.107 0 0 1 189.85 12.88 Q 189.816 12.884 189.772 12.872 A 0.344 0.344 0 0 1 189.757 12.867 A 8.577 8.577 0 0 1 189.836 14.027 A 8.515 8.515 0 0 1 189.827 14.414 Q 189.792 15.187 189.775 15.979 A 24.09 24.09 0 0 0 189.769 16.514 Q 189.769 17.057 189.792 17.631 Q 189.827 18.492 190.038 19.406 A 6.026 6.026 0 0 0 191.758 17.928 A 5.764 5.764 0 0 0 192.06 17.508 A 10.762 10.762 0 0 0 193.069 15.523 A 12.489 12.489 0 0 0 193.29 14.906 A 18.016 18.016 0 0 0 193.874 12.625 A 20.881 20.881 0 0 0 194.011 11.813 A 244.291 244.291 0 0 1 194.538 8.438 Q 194.855 8.121 195.031 7.664 A 10.166 10.166 0 0 0 195.293 6.887 A 11.418 11.418 0 0 0 195.347 6.697 L 195.628 5.678 A 5.443 5.443 0 0 1 195.843 5.047 A 4.593 4.593 0 0 1 195.98 4.746 Q 196.507 4.816 196.876 5.08 A 6.492 6.492 0 0 1 197.562 5.643 A 7.703 7.703 0 0 0 198.23 6.205 Q 198.581 6.469 199.109 6.539 A 25.905 25.905 0 0 1 199.69 7.398 A 22.344 22.344 0 0 1 199.882 7.699 A 3.243 3.243 0 0 1 200.339 8.895 A 2.128 2.128 0 0 0 200.112 9.397 A 2.477 2.477 0 0 0 200.075 9.527 Q 199.988 9.879 199.882 10.23 A 2.962 2.962 0 0 1 199.623 10.843 A 2.762 2.762 0 0 1 199.601 10.881 A 1.523 1.523 0 0 1 199.222 11.308 A 1.823 1.823 0 0 1 199.109 11.391 A 21.179 21.179 0 0 1 198.99 12.265 A 16.285 16.285 0 0 1 198.845 13.061 A 320.254 320.254 0 0 1 198.529 14.555 A 19.716 19.716 0 0 0 198.272 16.035 A 21.4 21.4 0 0 0 198.265 16.084 Q 198.186 16.677 198.186 17.359 A 12.559 12.559 0 0 0 198.195 17.824 Q 197.913 18.633 197.597 19.547 Q 197.281 20.461 197.105 21.199 A 3.284 3.284 0 0 0 196.226 22.289 A 32.938 32.938 0 0 1 195.558 23.555 A 0.852 0.852 0 0 1 195.524 23.587 Q 195.418 23.682 195.385 23.63 A 0.06 0.06 0 0 1 195.382 23.625 A 0.103 0.103 0 0 0 195.348 23.588 Q 195.294 23.549 195.164 23.525 A 1.325 1.325 0 0 0 195.136 23.52 A 0.696 0.696 0 0 1 195.147 23.569 Q 195.165 23.673 195.136 23.73 A 0.47 0.47 0 0 1 195.05 23.852 A 0.436 0.436 0 0 1 195.048 23.854 Q 195.006 23.895 194.987 23.97 A 0.461 0.461 0 0 0 194.978 24.012 Q 194.96 24.116 195.029 24.29 A 1.265 1.265 0 0 0 195.031 24.293 A 2.785 2.785 0 0 0 194.152 24.891 A 6.719 6.719 0 0 1 193.325 25.594 A 2.333 2.333 0 0 1 192.643 25.928 A 2.968 2.968 0 0 1 192.271 26.016 Q 191.788 26.098 191.078 25.9 A 6.093 6.093 0 0 1 190.671 25.77 Q 189.23 24.715 188.122 23.344 A 10.727 10.727 0 0 1 186.843 21.317 A 13.356 13.356 0 0 1 186.312 20.074 Z M 245.269 20.074 A 0.627 0.627 0 0 0 244.846 20.379 A 0.797 0.797 0 0 0 244.812 20.443 A 9.708 9.708 0 0 0 244.548 21.059 A 10.798 10.798 0 0 1 244.425 21.362 A 8.569 8.569 0 0 1 244.302 21.639 A 0.585 0.585 0 0 1 244.223 21.766 A 0.361 0.361 0 0 1 243.933 21.902 A 1.057 1.057 0 0 1 243.834 22.241 A 0.97 0.97 0 0 1 243.74 22.395 A 5.785 5.785 0 0 0 243.441 22.834 A 1.837 1.837 0 0 0 243.23 23.326 Q 243.165 23.569 243.28 23.887 A 1.673 1.673 0 0 0 243.3 23.941 Q 243.019 24.152 242.949 24.539 A 11.966 11.966 0 0 1 242.833 25.099 A 10.588 10.588 0 0 1 242.79 25.277 A 1.561 1.561 0 0 1 242.653 25.639 A 1.324 1.324 0 0 1 242.491 25.875 A 0.538 0.538 0 0 1 242.278 26.022 Q 242.065 26.108 241.718 26.086 Q 241.614 26.224 241.681 26.261 A 0.069 0.069 0 0 0 241.683 26.262 A 0.103 0.103 0 0 1 241.72 26.295 Q 241.759 26.35 241.783 26.479 A 1.325 1.325 0 0 1 241.788 26.508 A 1.729 1.729 0 0 0 241.67 26.49 Q 241.371 26.457 241.208 26.561 A 0.984 0.984 0 0 1 240.971 26.669 Q 240.865 26.702 240.742 26.718 A 1.63 1.63 0 0 1 240.734 26.719 Q 240.066 26.508 239.626 25.98 A 6.344 6.344 0 0 1 238.906 24.904 A 7.056 7.056 0 0 1 238.853 24.803 Q 238.519 24.152 238.255 23.484 Q 238.029 22.91 237.815 22.466 A 10.253 10.253 0 0 0 237.745 22.324 A 1.754 1.754 0 0 0 237.808 21.923 Q 237.814 21.744 237.781 21.568 Q 237.71 21.199 237.534 20.953 A 474.914 474.914 0 0 1 239.336 17.174 A 580.746 580.746 0 0 1 241.296 13.148 A 281.532 281.532 0 0 0 245.163 4.957 Q 245.972 5.273 246.763 5.678 Q 247.554 6.082 248.204 6.609 Q 248.855 7.137 249.312 7.822 Q 249.769 8.508 249.909 9.352 A 0.764 0.764 0 0 1 249.888 9.409 Q 249.826 9.555 249.751 9.51 A 0.137 0.137 0 0 0 249.727 9.498 Q 249.653 9.472 249.593 9.562 A 2.633 2.633 0 0 1 249.649 9.634 Q 249.738 9.754 249.751 9.809 Q 249.769 9.879 249.751 9.949 A 0.472 0.472 0 0 0 249.742 9.998 Q 249.735 10.05 249.734 10.119 A 1.617 1.617 0 0 0 249.734 10.143 A 0.399 0.399 0 0 0 249.743 10.226 Q 249.766 10.33 249.839 10.477 A 0.449 0.449 0 0 0 249.805 10.469 Q 249.692 10.45 249.646 10.512 A 0.084 0.084 0 0 1 249.596 10.543 Q 249.54 10.557 249.439 10.52 A 0.778 0.778 0 0 1 249.417 10.512 A 2.108 2.108 0 0 1 249.475 10.696 Q 249.537 10.93 249.513 11.102 A 0.61 0.61 0 0 1 249.505 11.145 A 1.765 1.765 0 0 1 249.424 11.418 A 1.447 1.447 0 0 1 249.347 11.584 A 2.224 2.224 0 0 0 249.199 11.921 A 2.533 2.533 0 0 0 249.171 12.006 A 0.635 0.635 0 0 0 249.146 12.134 Q 249.131 12.302 249.188 12.52 A 1.897 1.897 0 0 0 249.206 12.586 A 0.336 0.336 0 0 0 249.147 12.591 Q 249.085 12.602 249.048 12.639 A 0.779 0.779 0 0 0 248.995 12.697 A 0.61 0.61 0 0 0 248.96 12.744 A 0.628 0.628 0 0 1 248.915 12.803 A 0.802 0.802 0 0 1 248.872 12.85 A 0.107 0.107 0 0 1 248.807 12.88 Q 248.773 12.884 248.729 12.872 A 0.344 0.344 0 0 1 248.714 12.867 A 8.577 8.577 0 0 1 248.793 14.027 A 8.515 8.515 0 0 1 248.784 14.414 Q 248.749 15.187 248.732 15.979 A 24.09 24.09 0 0 0 248.726 16.514 Q 248.726 17.057 248.749 17.631 Q 248.784 18.492 248.995 19.406 A 6.026 6.026 0 0 0 250.716 17.928 A 5.764 5.764 0 0 0 251.017 17.508 A 10.762 10.762 0 0 0 252.026 15.523 A 12.489 12.489 0 0 0 252.247 14.906 A 18.016 18.016 0 0 0 252.831 12.625 A 20.881 20.881 0 0 0 252.968 11.813 A 244.291 244.291 0 0 1 253.495 8.438 Q 253.812 8.121 253.988 7.664 A 10.166 10.166 0 0 0 254.25 6.887 A 11.418 11.418 0 0 0 254.304 6.697 L 254.585 5.678 A 5.443 5.443 0 0 1 254.8 5.047 A 4.593 4.593 0 0 1 254.937 4.746 Q 255.464 4.816 255.833 5.08 A 6.492 6.492 0 0 1 256.519 5.643 A 7.703 7.703 0 0 0 257.187 6.205 Q 257.538 6.469 258.066 6.539 A 25.905 25.905 0 0 1 258.647 7.398 A 22.344 22.344 0 0 1 258.839 7.699 A 3.243 3.243 0 0 1 259.296 8.895 A 2.128 2.128 0 0 0 259.069 9.397 A 2.477 2.477 0 0 0 259.033 9.527 Q 258.945 9.879 258.839 10.23 A 2.962 2.962 0 0 1 258.58 10.843 A 2.762 2.762 0 0 1 258.558 10.881 A 1.523 1.523 0 0 1 258.179 11.308 A 1.823 1.823 0 0 1 258.066 11.391 A 21.179 21.179 0 0 1 257.947 12.265 A 16.285 16.285 0 0 1 257.802 13.061 A 320.254 320.254 0 0 1 257.486 14.555 A 19.716 19.716 0 0 0 257.229 16.035 A 21.4 21.4 0 0 0 257.222 16.084 Q 257.143 16.677 257.143 17.359 A 12.559 12.559 0 0 0 257.152 17.824 Q 256.87 18.633 256.554 19.547 Q 256.238 20.461 256.062 21.199 A 3.284 3.284 0 0 0 255.183 22.289 A 32.938 32.938 0 0 1 254.515 23.555 A 0.852 0.852 0 0 1 254.481 23.587 Q 254.375 23.682 254.342 23.63 A 0.06 0.06 0 0 1 254.339 23.625 A 0.103 0.103 0 0 0 254.305 23.588 Q 254.251 23.549 254.122 23.525 A 1.325 1.325 0 0 0 254.093 23.52 A 0.696 0.696 0 0 1 254.104 23.569 Q 254.122 23.673 254.093 23.73 A 0.47 0.47 0 0 1 254.007 23.852 A 0.436 0.436 0 0 1 254.005 23.854 Q 253.963 23.895 253.944 23.97 A 0.461 0.461 0 0 0 253.935 24.012 Q 253.917 24.116 253.986 24.29 A 1.265 1.265 0 0 0 253.988 24.293 A 2.785 2.785 0 0 0 253.109 24.891 A 6.719 6.719 0 0 1 252.283 25.594 A 2.333 2.333 0 0 1 251.6 25.928 A 2.968 2.968 0 0 1 251.228 26.016 Q 250.745 26.098 250.035 25.9 A 6.093 6.093 0 0 1 249.628 25.77 Q 248.187 24.715 247.079 23.344 A 10.727 10.727 0 0 1 245.8 21.317 A 13.356 13.356 0 0 1 245.269 20.074 Z M 210.605 17.262 L 210.218 17.156 A 6.887 6.887 0 0 0 209.314 16.721 A 8.473 8.473 0 0 0 208.706 16.506 Q 207.863 16.242 207.265 15.926 Q 206.878 16.137 206.544 16.031 A 5.461 5.461 0 0 0 206.292 15.959 Q 206.16 15.924 206.008 15.89 A 12.748 12.748 0 0 0 205.683 15.82 A 23.777 23.777 0 0 1 203.658 15.617 A 21.572 21.572 0 0 1 203.38 15.574 A 8.394 8.394 0 0 1 201.253 14.941 A 1.406 1.406 0 0 0 201.117 14.681 A 1.272 1.272 0 0 0 201.077 14.625 Q 200.98 14.495 200.731 14.545 A 0.952 0.952 0 0 0 200.691 14.555 A 22.067 22.067 0 0 0 200.269 14.01 A 4.105 4.105 0 0 1 199.927 13.508 A 4.582 4.582 0 0 1 199.882 13.43 A 21.302 21.302 0 0 0 199.93 13.131 Q 199.952 12.984 199.969 12.856 A 10.178 10.178 0 0 0 199.988 12.709 A 0.637 0.637 0 0 0 199.992 12.635 Q 199.992 12.382 199.788 12.143 A 1.231 1.231 0 0 0 199.777 12.129 A 25.323 25.323 0 0 0 199.843 11.911 Q 199.922 11.645 199.972 11.452 A 7.268 7.268 0 0 0 199.988 11.391 A 1.124 1.124 0 0 0 200.014 11.239 Q 200.038 11.018 199.997 10.716 A 3.643 3.643 0 0 0 199.988 10.652 Q 200.234 9.914 200.779 9.387 Q 201.324 8.859 201.974 8.49 A 8.275 8.275 0 0 1 203.327 7.875 A 22.941 22.941 0 0 1 204.179 7.595 A 18.974 18.974 0 0 1 204.663 7.453 A 41.982 41.982 0 0 1 206.785 6.621 A 48.799 48.799 0 0 1 207.669 6.311 A 42.154 42.154 0 0 1 210.939 5.344 A 19.535 19.535 0 0 1 214.366 4.799 A 9.115 9.115 0 0 1 215.003 4.777 Q 216.471 4.777 218.058 5.238 A 2.489 2.489 0 0 0 218.374 5.906 A 20.557 20.557 0 0 0 218.814 6.539 A 8.413 8.413 0 0 1 219.079 6.928 A 7.04 7.04 0 0 1 219.218 7.154 A 1.611 1.611 0 0 1 219.391 7.564 A 1.439 1.439 0 0 1 219.429 7.77 A 2.948 2.948 0 0 1 219.826 8.202 A 2.528 2.528 0 0 1 219.991 8.455 Q 220.2 8.82 220.065 9.407 A 2.583 2.583 0 0 1 220.062 9.422 A 12.048 12.048 0 0 1 219.587 9.784 A 10.26 10.26 0 0 1 219.376 9.932 A 4.764 4.764 0 0 1 218.656 10.336 A 8.31 8.31 0 0 0 216.685 10.099 A 8.456 8.456 0 0 0 216.019 10.125 Q 214.683 10.23 213.628 10.301 A 1.062 1.062 0 0 0 213.221 10.041 A 1.064 1.064 0 0 0 212.872 9.984 A 3.038 3.038 0 0 0 212.251 10.051 A 3.668 3.668 0 0 0 211.958 10.125 L 211.009 10.406 Q 210.693 10.5 210.4 10.5 A 1.744 1.744 0 0 1 210.113 10.477 A 1.741 1.741 0 0 1 209.54 10.776 A 2.226 2.226 0 0 1 209.251 10.846 A 18.686 18.686 0 0 1 208.72 10.929 A 23.441 23.441 0 0 1 208.144 11.004 A 0.493 0.493 0 0 0 208.138 11.041 Q 208.12 11.185 208.214 11.232 A 0.112 0.112 0 0 1 208.259 11.272 Q 208.299 11.334 208.25 11.458 A 0.599 0.599 0 0 1 208.249 11.461 A 1.142 1.142 0 0 0 208.723 11.788 A 1.385 1.385 0 0 0 208.794 11.812 A 25.758 25.758 0 0 0 209.315 11.971 A 29.525 29.525 0 0 0 209.497 12.023 A 3.409 3.409 0 0 1 209.865 12.15 A 2.623 2.623 0 0 1 210.148 12.287 A 0.789 0.789 0 0 1 210.484 12.662 A 1.081 1.081 0 0 1 210.534 12.797 A 1.899 1.899 0 0 1 211.009 12.854 A 1.517 1.517 0 0 1 211.449 13.043 A 2.251 2.251 0 0 1 211.976 13.502 A 2.094 2.094 0 0 1 212.081 13.641 Q 212.327 13.992 212.45 14.396 A 3.255 3.255 0 0 1 212.53 14.71 Q 212.561 14.868 212.57 15.009 A 1.746 1.746 0 0 1 212.574 15.117 A 0.961 0.961 0 0 0 212.613 15.208 Q 212.704 15.392 212.82 15.363 Q 212.96 15.328 213.136 15.504 Q 213.226 15.893 213.544 16.294 A 3.316 3.316 0 0 0 213.663 16.436 A 3.919 3.919 0 0 1 214.331 17.473 A 68.205 68.205 0 0 1 214.386 18.205 Q 214.409 18.54 214.426 18.84 A 39.669 39.669 0 0 1 214.437 19.037 A 2.979 2.979 0 0 1 214.441 19.19 Q 214.441 19.667 214.288 20.153 A 3.8 3.8 0 0 1 214.191 20.426 A 7.696 7.696 0 0 1 212.732 22.746 A 11.62 11.62 0 0 1 210.622 24.557 A 14.789 14.789 0 0 1 208.109 25.91 A 28.138 28.138 0 0 1 206.144 26.655 A 24.551 24.551 0 0 1 205.507 26.859 Q 205.366 26.824 205.226 26.859 Q 205.094 26.892 205.147 26.71 A 0.705 0.705 0 0 1 205.156 26.684 A 1.436 1.436 0 0 1 204.803 26.914 A 1.266 1.266 0 0 1 204.54 27 Q 204.273 27.056 203.972 27.056 A 3.36 3.36 0 0 1 203.82 27.053 Q 203.433 27.035 203.029 27 A 3.044 3.044 0 0 0 202.765 26.988 Q 202.507 26.988 202.273 27.035 Q 202.027 26.789 201.833 26.561 A 1.395 1.395 0 0 1 201.645 26.267 A 1.916 1.916 0 0 1 201.534 25.98 Q 201.359 25.98 201.376 25.805 A 0.403 0.403 0 0 0 201.378 25.783 Q 201.384 25.649 201.285 25.631 A 0.184 0.184 0 0 0 201.253 25.629 A 6.768 6.768 0 0 0 201.299 25.552 Q 201.462 25.271 201.447 25.225 Q 201.429 25.172 201.341 25.137 A 0.703 0.703 0 0 1 201.211 25.069 A 0.636 0.636 0 0 1 201.183 25.049 A 0.117 0.117 0 0 1 201.148 25.009 Q 201.125 24.964 201.145 24.898 A 0.286 0.286 0 0 1 201.148 24.891 Q 201.288 24.609 201.253 24.24 A 176.949 176.949 0 0 1 201.183 23.484 A 2.408 2.408 0 0 1 201.173 23.266 A 2.137 2.137 0 0 1 201.236 22.746 A 0.749 0.749 0 0 1 201.467 22.37 Q 201.559 22.285 201.685 22.215 A 1.531 1.531 0 0 1 201.745 22.184 A 7.639 7.639 0 0 0 202.638 22.237 A 6.578 6.578 0 0 0 204.013 22.096 A 10.206 10.206 0 0 0 206.005 21.458 A 9.532 9.532 0 0 0 206.034 21.445 A 20.101 20.101 0 0 0 207.845 20.531 A 21.745 21.745 0 0 1 209.339 19.751 A 19.694 19.694 0 0 1 209.55 19.652 A 1.629 1.629 0 0 1 209.682 19.354 A 1.289 1.289 0 0 1 209.849 19.125 Q 210.042 18.914 210.253 18.738 Q 210.464 18.562 210.64 18.352 A 1.114 1.114 0 0 0 210.818 18.047 A 1.463 1.463 0 0 0 210.886 17.824 A 0.669 0.669 0 0 0 210.891 17.782 Q 210.901 17.645 210.843 17.577 A 0.177 0.177 0 0 0 210.763 17.525 A 0.212 0.212 0 0 1 210.621 17.379 Q 210.605 17.328 210.605 17.262 Z M 166.468 21.02 A 0.428 0.428 0 0 0 166.238 20.742 Q 166.413 20.566 166.378 20.303 Q 166.343 20.039 166.22 19.705 A 7.379 7.379 0 0 0 166.116 19.439 A 9.093 9.093 0 0 0 165.921 19.002 Q 165.745 18.633 165.64 18.281 A 2.162 2.162 0 0 0 165.61 18.262 A 1.935 1.935 0 0 0 165.429 18.158 A 0.785 0.785 0 0 1 165.349 18.112 A 0.603 0.603 0 0 1 165.253 18.035 A 3.396 3.396 0 0 0 164.55 17.121 Q 164.128 16.734 163.654 16.383 Q 163.179 16.031 162.722 15.68 Q 162.265 15.328 161.913 14.871 Q 162.441 14.203 163.091 13.605 A 12.142 12.142 0 0 0 164.286 12.34 A 6.943 6.943 0 0 0 165.2 10.881 A 3.466 3.466 0 0 0 165.466 10.03 Q 165.538 9.635 165.538 9.187 A 5.809 5.809 0 0 0 165.534 9 A 0.315 0.315 0 0 0 165.429 8.901 A 0.404 0.404 0 0 0 165.324 8.859 A 0.206 0.206 0 0 1 165.299 8.851 Q 165.197 8.812 165.213 8.678 A 0.391 0.391 0 0 1 165.218 8.648 A 1.751 1.751 0 0 0 165.214 8.532 A 1.421 1.421 0 0 0 164.99 7.84 A 3.026 3.026 0 0 0 164.916 7.731 A 3.298 3.298 0 0 0 164.427 7.189 A 11.565 11.565 0 0 0 163.724 6.609 A 3.834 3.834 0 0 1 163.464 6.393 A 3.061 3.061 0 0 1 163.109 6.012 A 0.698 0.698 0 0 1 162.83 5.953 A 0.918 0.918 0 0 1 162.634 5.836 A 10.381 10.381 0 0 1 162.46 5.699 A 12.382 12.382 0 0 1 162.159 5.449 Q 161.913 5.238 161.615 5.062 Q 161.37 4.919 161.042 5.105 A 1.417 1.417 0 0 0 160.894 5.203 A 2.639 2.639 0 0 0 160.731 5.093 Q 160.597 5.01 160.47 4.957 A 1.272 1.272 0 0 0 160.173 4.869 A 1.035 1.035 0 0 1 159.954 4.811 A 0.709 0.709 0 0 1 159.663 4.605 A 0.961 0.961 0 0 1 159.633 4.62 Q 159.431 4.712 159.154 4.729 A 9.651 9.651 0 0 1 159.135 4.73 A 10.508 10.508 0 0 1 158.538 4.746 A 11.339 11.339 0 0 0 158.519 4.746 A 10.454 10.454 0 0 0 157.923 4.764 Q 157.774 4.772 157.646 4.803 A 1.092 1.092 0 0 0 157.413 4.887 Q 156.795 4.846 156.21 4.869 A 9.422 9.422 0 0 0 154.46 5.098 Q 153.089 5.414 151.718 5.66 L 149.96 6.1 Q 149.046 6.328 148.238 6.697 A 6.721 6.721 0 0 0 148.134 6.746 A 5.994 5.994 0 0 0 146.796 7.611 Q 146.163 8.156 145.847 8.965 A 8.285 8.285 0 0 0 146.009 9.343 A 7.139 7.139 0 0 0 147.148 11.109 A 4.987 4.987 0 0 0 147.753 11.688 A 5.548 5.548 0 0 0 149.187 12.516 Q 149.458 12.425 149.794 12.425 A 2.618 2.618 0 0 1 149.908 12.428 A 1.085 1.085 0 0 0 149.955 12.429 Q 149.96 12.429 149.966 12.429 A 0.869 0.869 0 0 0 150.593 12.164 A 2.717 2.717 0 0 1 150.621 12.001 Q 150.657 11.829 150.712 11.684 A 1.4 1.4 0 0 1 150.874 11.373 A 0.687 0.687 0 0 1 151.037 11.209 Q 151.153 11.127 151.31 11.083 A 1.364 1.364 0 0 1 151.577 11.039 A 3.806 3.806 0 0 1 151.579 11.044 Q 151.718 11.639 151.613 12.076 A 6.431 6.431 0 0 1 151.349 12.92 A 22.537 22.537 0 0 0 151.05 13.729 A 1.94 1.94 0 0 0 150.969 14.049 Q 150.937 14.242 150.938 14.457 A 3.101 3.101 0 0 0 150.945 14.66 Q 150.737 15.214 150.613 15.646 A 6.749 6.749 0 0 0 150.505 16.066 A 31.023 31.023 0 0 0 150.391 16.611 A 25.106 25.106 0 0 0 150.294 17.121 A 6.106 6.106 0 0 1 150.258 17.306 A 6.816 6.816 0 0 1 150.031 18.123 A 12.963 12.963 0 0 0 150.027 18.132 Q 149.896 18.514 149.688 19.194 A 90.778 90.778 0 0 0 149.538 19.688 A 1.301 1.301 0 0 0 149.53 19.694 A 1.071 1.071 0 0 0 149.152 20.215 Q 149.046 20.531 148.976 20.848 A 5.303 5.303 0 0 1 148.8 21.463 A 1.178 1.178 0 0 1 148.449 21.973 L 148.589 22.324 A 1.285 1.285 0 0 1 148.606 22.369 Q 148.636 22.451 148.658 22.548 A 2.33 2.33 0 0 1 148.695 22.746 A 0.637 0.637 0 0 0 148.629 22.761 Q 148.305 22.857 148.273 23.273 A 9.423 9.423 0 0 1 148.235 23.66 A 7.486 7.486 0 0 1 148.167 24.117 A 2.927 2.927 0 0 0 148.168 24.121 A 2.853 2.853 0 0 0 148.572 24.943 Q 148.835 25.312 148.695 25.559 A 0.583 0.583 0 0 1 148.997 25.742 A 0.78 0.78 0 0 1 149.116 25.928 A 1.633 1.633 0 0 1 149.136 25.971 Q 149.226 26.177 149.207 26.302 A 0.219 0.219 0 0 1 149.187 26.367 A 2.234 2.234 0 0 1 149.333 26.409 Q 149.512 26.467 149.626 26.543 A 2.049 2.049 0 0 1 149.694 26.59 A 1.784 1.784 0 0 1 149.908 26.771 A 5.006 5.006 0 0 1 149.969 26.834 A 5.57 5.57 0 0 1 150.154 27.035 Q 150.277 27.176 150.488 27.281 A 0.725 0.725 0 0 1 150.511 27.259 Q 150.647 27.135 150.793 27.135 A 0.357 0.357 0 0 1 150.857 27.141 L 151.437 27.246 A 0.921 0.921 0 0 0 151.707 27.088 A 1.134 1.134 0 0 0 151.911 26.859 Q 152.105 26.578 152.281 26.297 Q 152.478 26.429 152.724 26.581 A 25.001 25.001 0 0 0 153.036 26.771 A 6.513 6.513 0 0 0 153.414 26.982 A 5.075 5.075 0 0 0 153.88 27.193 Q 154.284 27.352 154.566 27.334 A 0.432 0.432 0 0 0 154.591 27.332 Q 154.849 27.3 154.882 26.965 Q 154.927 26.987 154.96 27.015 A 0.227 0.227 0 0 1 155.04 27.158 Q 155.058 27.281 155.199 27.352 A 130.613 130.613 0 0 1 155.897 27.207 A 167.771 167.771 0 0 1 156.658 27.053 Q 157.449 26.895 157.73 26.508 A 13.802 13.802 0 0 0 161.228 25.488 A 29.502 29.502 0 0 0 164.48 23.801 A 219.181 219.181 0 0 0 164.624 23.68 Q 164.844 23.497 164.957 23.402 A 13.678 13.678 0 0 0 165.025 23.344 A 1.122 1.122 0 0 0 165.133 23.237 A 1.427 1.427 0 0 0 165.253 23.08 Q 165.359 22.922 165.605 22.605 A 152.846 152.846 0 0 1 165.704 22.478 Q 165.885 22.245 166.196 21.849 A 1382 1382 0 0 1 166.484 21.48 A 0.469 0.469 0 0 0 166.487 21.465 Q 166.511 21.354 166.494 21.182 A 1.981 1.981 0 0 0 166.484 21.094 A 0.575 0.575 0 0 0 166.468 21.02 Z M 134.984 7.594 L 134.984 7.207 A 3.625 3.625 0 0 0 135.379 7.003 Q 135.719 6.799 135.915 6.557 Q 136.214 6.187 136.636 5.66 Q 136.938 5.627 137.128 5.625 A 2.223 2.223 0 0 1 137.146 5.625 Q 137.296 5.625 137.562 5.583 A 7.463 7.463 0 0 0 137.726 5.555 Q 137.987 5.098 138.202 4.853 A 1.877 1.877 0 0 1 138.236 4.816 A 2.062 2.062 0 0 1 138.42 4.643 Q 138.52 4.558 138.646 4.47 A 5.241 5.241 0 0 1 138.921 4.289 Q 139.343 4.5 139.853 4.57 Q 140.363 4.641 140.749 5.027 Q 140.784 5.379 140.96 5.572 Q 141.136 5.766 141.347 5.924 A 5.559 5.559 0 0 1 141.751 6.258 Q 141.945 6.434 142.015 6.75 A 0.449 0.449 0 0 0 142.049 6.757 Q 142.162 6.776 142.208 6.715 A 0.113 0.113 0 0 1 142.275 6.673 Q 142.325 6.661 142.402 6.68 A 3.82 3.82 0 0 0 142.455 6.899 Q 142.511 7.1 142.575 7.221 A 0.555 0.555 0 0 0 142.648 7.33 A 0.679 0.679 0 0 1 142.722 7.435 Q 142.792 7.552 142.861 7.742 A 4.157 4.157 0 0 1 142.929 7.945 A 3.335 3.335 0 0 0 142.665 8.666 A 0.782 0.782 0 0 1 142.284 9.179 A 1.013 1.013 0 0 1 142.226 9.211 A 0.625 0.625 0 0 0 142.222 9.246 Q 142.205 9.443 142.344 9.471 A 0.226 0.226 0 0 0 142.366 9.475 Q 142.517 9.49 142.564 9.62 A 0.327 0.327 0 0 1 142.577 9.668 Q 142.604 9.907 142.53 10.046 A 0.331 0.331 0 0 1 142.472 10.125 A 23.384 23.384 0 0 1 143.984 13.025 A 23.384 23.384 0 0 0 145.495 15.926 A 2.513 2.513 0 0 0 145.487 16.135 A 2.27 2.27 0 0 0 145.566 16.734 A 5.772 5.772 0 0 0 145.829 17.49 Q 145.988 17.859 146.128 18.246 A 4.745 4.745 0 0 1 146.339 19.02 Q 146.401 19.45 146.355 19.948 A 5.119 5.119 0 0 1 146.339 20.092 A 6.012 6.012 0 0 1 146.093 21.217 A 4.411 4.411 0 0 1 145.802 21.916 A 3.858 3.858 0 0 1 145.636 22.201 Q 145.355 22.641 144.968 22.852 A 3.457 3.457 0 0 1 143.773 23.836 A 6.876 6.876 0 0 0 142.472 24.68 A 2.655 2.655 0 0 1 141.655 25.021 A 2.998 2.998 0 0 1 141.611 25.031 A 130.652 130.652 0 0 1 140.644 25.242 Q 140.257 25.453 139.73 25.682 Q 139.202 25.91 138.64 26.104 Q 138.077 26.297 137.515 26.385 A 5.608 5.608 0 0 1 137.143 26.431 Q 136.806 26.46 136.531 26.437 Q 135.476 26.824 134.474 26.947 Q 133.472 27.07 132.136 26.789 A 7.005 7.005 0 0 1 131.364 26.854 Q 130.674 26.873 130.048 26.742 A 5.066 5.066 0 0 1 129.798 26.684 A 5.616 5.616 0 0 1 128.328 26.074 A 5.134 5.134 0 0 1 127.9 25.787 A 6.634 6.634 0 0 1 126.458 24.311 A 8.859 8.859 0 0 1 125.456 22.5 A 11.48 11.48 0 0 1 125.351 21.331 Q 125.302 20.006 125.597 18.861 A 12.301 12.301 0 0 1 126.761 15.925 A 11.545 11.545 0 0 1 126.81 15.838 A 16.035 16.035 0 0 1 128.62 13.271 A 239.943 239.943 0 0 0 130.53 11.039 A 216.868 216.868 0 0 0 130.589 10.969 A 0.687 0.687 0 0 0 130.662 10.989 Q 130.768 11.012 130.848 10.988 A 0.252 0.252 0 0 0 130.923 10.951 A 0.79 0.79 0 0 0 131.045 10.842 Q 131.094 10.789 131.139 10.724 A 1.318 1.318 0 0 0 131.152 10.705 A 2.875 2.875 0 0 1 131.38 10.406 Q 131.503 10.266 131.679 10.23 A 1.794 1.794 0 0 1 132.04 9.709 A 1.638 1.638 0 0 1 132.4 9.439 Q 132.874 9.176 133.156 8.684 A 1.931 1.931 0 0 0 133.408 8.61 Q 133.538 8.562 133.644 8.497 A 1.128 1.128 0 0 0 133.683 8.473 A 3.426 3.426 0 0 0 134.087 8.156 A 5.559 5.559 0 0 1 134.491 7.822 A 1.32 1.32 0 0 1 134.876 7.625 A 1.57 1.57 0 0 1 134.984 7.594 Z M 225.406 7.594 L 225.406 7.207 A 3.625 3.625 0 0 0 225.801 7.003 Q 226.141 6.799 226.337 6.557 Q 226.636 6.187 227.058 5.66 Q 227.36 5.627 227.55 5.625 A 2.223 2.223 0 0 1 227.568 5.625 Q 227.718 5.625 227.984 5.583 A 7.463 7.463 0 0 0 228.148 5.555 Q 228.409 5.098 228.624 4.853 A 1.877 1.877 0 0 1 228.658 4.816 A 2.062 2.062 0 0 1 228.842 4.643 Q 228.942 4.558 229.068 4.47 A 5.241 5.241 0 0 1 229.343 4.289 Q 229.765 4.5 230.275 4.57 Q 230.784 4.641 231.171 5.027 Q 231.206 5.379 231.382 5.572 Q 231.558 5.766 231.769 5.924 A 5.559 5.559 0 0 1 232.173 6.258 Q 232.366 6.434 232.437 6.75 A 0.449 0.449 0 0 0 232.471 6.757 Q 232.584 6.776 232.63 6.715 A 0.113 0.113 0 0 1 232.697 6.673 Q 232.747 6.661 232.824 6.68 A 3.82 3.82 0 0 0 232.877 6.899 Q 232.932 7.1 232.997 7.221 A 0.555 0.555 0 0 0 233.07 7.33 A 0.679 0.679 0 0 1 233.144 7.435 Q 233.214 7.552 233.283 7.742 A 4.157 4.157 0 0 1 233.351 7.945 A 3.335 3.335 0 0 0 233.087 8.666 A 0.782 0.782 0 0 1 232.706 9.179 A 1.013 1.013 0 0 1 232.648 9.211 A 0.625 0.625 0 0 0 232.644 9.246 Q 232.627 9.443 232.766 9.471 A 0.226 0.226 0 0 0 232.788 9.475 Q 232.938 9.49 232.986 9.62 A 0.327 0.327 0 0 1 232.999 9.668 Q 233.026 9.907 232.952 10.046 A 0.331 0.331 0 0 1 232.894 10.125 A 23.384 23.384 0 0 1 234.406 13.025 A 23.384 23.384 0 0 0 235.917 15.926 A 2.513 2.513 0 0 0 235.908 16.135 A 2.27 2.27 0 0 0 235.988 16.734 A 5.772 5.772 0 0 0 236.251 17.49 Q 236.409 17.859 236.55 18.246 A 4.745 4.745 0 0 1 236.761 19.02 Q 236.823 19.45 236.776 19.948 A 5.119 5.119 0 0 1 236.761 20.092 A 6.012 6.012 0 0 1 236.515 21.217 A 4.411 4.411 0 0 1 236.223 21.916 A 3.858 3.858 0 0 1 236.058 22.201 Q 235.777 22.641 235.39 22.852 A 3.457 3.457 0 0 1 234.195 23.836 A 6.876 6.876 0 0 0 232.894 24.68 A 2.655 2.655 0 0 1 232.077 25.021 A 2.998 2.998 0 0 1 232.033 25.031 A 130.652 130.652 0 0 1 231.066 25.242 Q 230.679 25.453 230.152 25.682 Q 229.624 25.91 229.062 26.104 Q 228.499 26.297 227.937 26.385 A 5.608 5.608 0 0 1 227.564 26.431 Q 227.228 26.46 226.952 26.437 Q 225.898 26.824 224.896 26.947 Q 223.894 27.07 222.558 26.789 A 7.005 7.005 0 0 1 221.786 26.854 Q 221.096 26.873 220.47 26.742 A 5.066 5.066 0 0 1 220.22 26.684 A 5.616 5.616 0 0 1 218.75 26.074 A 5.134 5.134 0 0 1 218.322 25.787 A 6.634 6.634 0 0 1 216.88 24.311 A 8.859 8.859 0 0 1 215.878 22.5 A 11.48 11.48 0 0 1 215.773 21.331 Q 215.724 20.006 216.019 18.861 A 12.301 12.301 0 0 1 217.183 15.925 A 11.545 11.545 0 0 1 217.232 15.838 A 16.035 16.035 0 0 1 219.042 13.271 A 239.943 239.943 0 0 0 220.952 11.039 A 216.868 216.868 0 0 0 221.011 10.969 A 0.687 0.687 0 0 0 221.084 10.989 Q 221.19 11.012 221.27 10.988 A 0.252 0.252 0 0 0 221.345 10.951 A 0.79 0.79 0 0 0 221.467 10.842 Q 221.516 10.789 221.561 10.724 A 1.318 1.318 0 0 0 221.574 10.705 A 2.875 2.875 0 0 1 221.802 10.406 Q 221.925 10.266 222.101 10.23 A 1.794 1.794 0 0 1 222.462 9.709 A 1.638 1.638 0 0 1 222.822 9.439 Q 223.296 9.176 223.577 8.684 A 1.931 1.931 0 0 0 223.83 8.61 Q 223.96 8.562 224.066 8.497 A 1.128 1.128 0 0 0 224.105 8.473 A 3.426 3.426 0 0 0 224.509 8.156 A 5.559 5.559 0 0 1 224.913 7.822 A 1.32 1.32 0 0 1 225.298 7.625 A 1.57 1.57 0 0 1 225.406 7.594 Z M 42.189 25.664 A 1.471 1.471 0 0 0 42.231 25.571 Q 42.474 24.986 42.312 24.012 A 14.781 14.781 0 0 1 42.064 21.337 A 14.136 14.136 0 0 1 42.083 20.602 A 21.77 21.77 0 0 1 42.523 17.244 A 30.979 30.979 0 0 1 43.419 13.922 A 88.08 88.08 0 0 1 44.597 10.582 A 0.628 0.628 0 0 1 44.299 10.349 A 0.893 0.893 0 0 1 44.193 10.143 A 2.536 2.536 0 0 1 44.107 9.86 A 3.083 3.083 0 0 1 44.034 9.404 A 9.535 9.535 0 0 1 43.999 8.578 L 43.999 7.875 Q 43.577 7.664 43.402 7.295 A 3.486 3.486 0 0 1 43.138 6.504 L 42.962 5.66 Q 42.874 5.238 42.593 4.887 A 3.033 3.033 0 0 0 42.496 4.888 Q 42.287 4.895 42.105 4.931 A 1.714 1.714 0 0 0 41.697 5.062 A 4.178 4.178 0 0 0 41.561 5.13 A 3.659 3.659 0 0 0 41.029 5.467 A 5.411 5.411 0 0 0 41.01 5.481 A 5.842 5.842 0 0 0 40.449 5.977 A 3.921 3.921 0 0 1 39.851 6.469 A 2.132 2.132 0 0 1 39.866 6.718 A 2.027 2.027 0 0 1 39.658 7.611 A 17.391 17.391 0 0 1 39.539 7.852 Q 39.353 8.222 39.218 8.437 Q 39.08 8.713 39.083 8.924 A 0.564 0.564 0 0 0 39.095 9.035 A 0.745 0.745 0 0 1 39.106 9.099 Q 39.135 9.33 39.042 9.668 A 0.376 0.376 0 0 1 39.037 9.692 Q 39.01 9.789 38.937 9.845 A 0.332 0.332 0 0 1 38.831 9.896 A 0.538 0.538 0 0 0 38.828 9.897 Q 38.655 9.951 38.62 10.09 Q 38.572 10.26 38.616 10.447 A 0.988 0.988 0 0 0 38.673 10.617 A 0.919 0.919 0 0 1 38.751 10.989 Q 38.751 11.1 38.726 11.215 A 19.358 19.358 0 0 1 37.97 13.992 Q 37.495 15.328 37.249 16.805 A 9.867 9.867 0 0 0 37.217 17.072 A 11.238 11.238 0 0 0 37.161 17.912 A 1208.495 1208.495 0 0 1 37.126 19.055 A 17.011 17.011 0 0 1 37.056 20.162 A 3.917 3.917 0 0 1 36.986 20.615 A 2.971 2.971 0 0 1 36.827 21.129 A 72.5 72.5 0 0 0 36.868 21.3 Q 36.93 21.563 37.002 21.857 A 127.589 127.589 0 0 0 37.161 22.5 A 28.696 28.696 0 0 0 37.601 24.064 A 25.95 25.95 0 0 0 38.128 25.594 Q 38.409 26.332 38.761 26.824 A 5.534 5.534 0 0 0 38.88 26.843 Q 39.3 26.903 39.75 26.903 A 6.952 6.952 0 0 0 40.097 26.895 A 3.364 3.364 0 0 0 40.48 26.854 A 2.706 2.706 0 0 0 41.345 26.561 A 1.944 1.944 0 0 0 41.754 26.262 A 2.138 2.138 0 0 0 42.189 25.664 Z M 174.904 25.664 A 1.471 1.471 0 0 0 174.946 25.571 Q 175.189 24.986 175.027 24.012 A 14.781 14.781 0 0 1 174.779 21.337 A 14.136 14.136 0 0 1 174.798 20.602 A 21.77 21.77 0 0 1 175.238 17.244 A 30.979 30.979 0 0 1 176.134 13.922 A 88.08 88.08 0 0 1 177.312 10.582 A 0.628 0.628 0 0 1 177.014 10.349 A 0.893 0.893 0 0 1 176.908 10.143 A 2.536 2.536 0 0 1 176.822 9.86 A 3.083 3.083 0 0 1 176.749 9.404 A 9.535 9.535 0 0 1 176.714 8.578 L 176.714 7.875 Q 176.292 7.664 176.116 7.295 A 3.486 3.486 0 0 1 175.853 6.504 L 175.677 5.66 Q 175.589 5.238 175.308 4.887 A 3.033 3.033 0 0 0 175.21 4.888 Q 175.002 4.895 174.82 4.931 A 1.714 1.714 0 0 0 174.411 5.062 A 4.178 4.178 0 0 0 174.275 5.13 A 3.659 3.659 0 0 0 173.743 5.467 A 5.411 5.411 0 0 0 173.725 5.481 A 5.842 5.842 0 0 0 173.163 5.977 A 3.921 3.921 0 0 1 172.566 6.469 A 2.132 2.132 0 0 1 172.581 6.718 A 2.027 2.027 0 0 1 172.372 7.611 A 17.391 17.391 0 0 1 172.254 7.852 Q 172.067 8.222 171.933 8.437 Q 171.795 8.713 171.798 8.924 A 0.564 0.564 0 0 0 171.81 9.035 A 0.745 0.745 0 0 1 171.821 9.099 Q 171.849 9.33 171.757 9.668 A 0.376 0.376 0 0 1 171.751 9.692 Q 171.725 9.789 171.651 9.845 A 0.332 0.332 0 0 1 171.546 9.896 A 0.538 0.538 0 0 0 171.543 9.897 Q 171.37 9.951 171.335 10.09 Q 171.287 10.26 171.33 10.447 A 0.988 0.988 0 0 0 171.388 10.617 A 0.919 0.919 0 0 1 171.466 10.989 Q 171.466 11.1 171.441 11.215 A 19.358 19.358 0 0 1 170.685 13.992 Q 170.21 15.328 169.964 16.805 A 9.867 9.867 0 0 0 169.932 17.072 A 11.238 11.238 0 0 0 169.876 17.912 A 1208.495 1208.495 0 0 1 169.841 19.055 A 17.011 17.011 0 0 1 169.771 20.162 A 3.917 3.917 0 0 1 169.701 20.615 A 2.971 2.971 0 0 1 169.542 21.129 A 72.5 72.5 0 0 0 169.583 21.3 Q 169.645 21.563 169.717 21.857 A 127.589 127.589 0 0 0 169.876 22.5 A 28.696 28.696 0 0 0 170.316 24.064 A 25.95 25.95 0 0 0 170.843 25.594 Q 171.124 26.332 171.476 26.824 A 5.534 5.534 0 0 0 171.595 26.843 Q 172.015 26.903 172.465 26.903 A 6.952 6.952 0 0 0 172.812 26.895 A 3.364 3.364 0 0 0 173.195 26.854 A 2.706 2.706 0 0 0 174.06 26.561 A 1.944 1.944 0 0 0 174.469 26.262 A 2.138 2.138 0 0 0 174.904 25.664 Z M 141.249 18.939 A 2.194 2.194 0 0 0 141.101 19.266 A 101.235 101.235 0 0 0 140.527 19.563 A 89.753 89.753 0 0 0 138.886 20.443 A 7.348 7.348 0 0 1 138.734 20.524 Q 138.201 20.802 137.566 21.024 A 12.329 12.329 0 0 1 136.355 21.375 A 7.079 7.079 0 0 0 135.669 21.41 A 9.273 9.273 0 0 0 134.825 21.533 A 15.803 15.803 0 0 1 133.138 21.762 A 8.363 8.363 0 0 1 132.457 21.79 A 7.642 7.642 0 0 1 131.468 21.727 A 3.225 3.225 0 0 1 131.455 21.725 A 2.714 2.714 0 0 1 130.062 21.129 A 4.804 4.804 0 0 1 130.141 20.425 A 3.533 3.533 0 0 1 130.378 19.652 Q 130.659 19.02 131.046 18.457 A 37.768 37.768 0 0 1 131.837 17.35 Q 132.241 16.805 132.523 16.137 Q 132.699 16.066 132.734 16.084 A 0.031 0.031 0 0 0 132.742 16.087 Q 132.783 16.095 132.909 16.031 A 10.178 10.178 0 0 1 134.738 14.238 A 119.899 119.899 0 0 0 136.777 12.656 A 1.392 1.392 0 0 0 136.874 12.727 A 1.561 1.561 0 0 0 137.181 12.885 A 1.841 1.841 0 0 0 137.35 12.941 A 1.469 1.469 0 0 0 137.62 12.99 A 0.628 0.628 0 0 0 137.673 12.992 A 0.571 0.571 0 0 0 138.007 12.885 A 0.5 0.5 0 0 0 138.092 12.809 Q 138.201 12.688 138.253 12.48 Q 138.464 12.691 138.64 12.551 Q 138.744 12.467 138.811 12.384 A 0.639 0.639 0 0 0 138.886 12.27 A 16.464 16.464 0 0 1 138.908 12.304 A 17.803 17.803 0 0 1 140.152 14.607 A 13.888 13.888 0 0 0 141.488 16.945 A 5.692 5.692 0 0 0 141.49 17.107 Q 141.494 17.26 141.507 17.364 A 1.02 1.02 0 0 0 141.523 17.455 A 0.631 0.631 0 0 0 141.544 17.527 Q 141.579 17.626 141.655 17.762 A 3.301 3.301 0 0 0 141.734 17.895 Q 141.699 18.387 141.47 18.633 A 1.602 1.602 0 0 0 141.249 18.939 Z M 231.671 18.939 A 2.194 2.194 0 0 0 231.523 19.266 A 101.235 101.235 0 0 0 230.949 19.563 A 89.753 89.753 0 0 0 229.308 20.443 A 7.348 7.348 0 0 1 229.156 20.524 Q 228.623 20.802 227.988 21.024 A 12.329 12.329 0 0 1 226.777 21.375 A 7.079 7.079 0 0 0 226.09 21.41 A 9.273 9.273 0 0 0 225.247 21.533 A 15.803 15.803 0 0 1 223.56 21.762 A 8.363 8.363 0 0 1 222.879 21.79 A 7.642 7.642 0 0 1 221.89 21.727 A 3.225 3.225 0 0 1 221.877 21.725 A 2.714 2.714 0 0 1 220.484 21.129 A 4.804 4.804 0 0 1 220.563 20.425 A 3.533 3.533 0 0 1 220.8 19.652 Q 221.081 19.02 221.468 18.457 A 37.768 37.768 0 0 1 222.259 17.35 Q 222.663 16.805 222.945 16.137 Q 223.12 16.066 223.156 16.084 A 0.031 0.031 0 0 0 223.164 16.087 Q 223.205 16.095 223.331 16.031 A 10.178 10.178 0 0 1 225.159 14.238 A 119.899 119.899 0 0 0 227.199 12.656 A 1.392 1.392 0 0 0 227.296 12.727 A 1.561 1.561 0 0 0 227.603 12.885 A 1.841 1.841 0 0 0 227.772 12.941 A 1.469 1.469 0 0 0 228.042 12.99 A 0.628 0.628 0 0 0 228.094 12.992 A 0.571 0.571 0 0 0 228.429 12.885 A 0.5 0.5 0 0 0 228.514 12.809 Q 228.623 12.688 228.675 12.48 Q 228.886 12.691 229.062 12.551 Q 229.166 12.467 229.233 12.384 A 0.639 0.639 0 0 0 229.308 12.27 A 16.464 16.464 0 0 1 229.33 12.304 A 17.803 17.803 0 0 1 230.574 14.607 A 13.888 13.888 0 0 0 231.909 16.945 A 5.692 5.692 0 0 0 231.912 17.107 Q 231.916 17.26 231.929 17.364 A 1.02 1.02 0 0 0 231.945 17.455 A 0.631 0.631 0 0 0 231.966 17.527 Q 232.001 17.626 232.076 17.762 A 3.301 3.301 0 0 0 232.156 17.895 Q 232.12 18.387 231.892 18.633 A 1.602 1.602 0 0 0 231.671 18.939 Z M 160.894 19.652 A 1.066 1.066 0 0 0 160.507 20.215 A 21.699 21.699 0 0 0 160.289 20.295 A 19.584 19.584 0 0 0 158.837 20.9 A 51.616 51.616 0 0 1 157.22 21.621 A 24.471 24.471 0 0 1 155.515 22.271 A 9.03 9.03 0 0 1 154.772 22.488 A 11.079 11.079 0 0 1 153.581 22.711 A 276.061 276.061 0 0 1 153.679 22.429 A 303.616 303.616 0 0 1 154.39 20.391 A 113.871 113.871 0 0 1 154.803 19.239 A 90.882 90.882 0 0 1 155.199 18.176 A 8.75 8.75 0 0 0 156.728 17.824 A 9.732 9.732 0 0 1 158.31 17.455 A 5.781 5.781 0 0 1 159.162 17.394 Q 159.219 17.394 159.276 17.395 A 7.003 7.003 0 0 1 160.068 17.455 A 4.295 4.295 0 0 1 160.429 17.519 Q 160.835 17.609 161.275 17.781 A 8.234 8.234 0 0 1 162.124 18.176 A 1.522 1.522 0 0 1 162.126 18.206 Q 162.138 18.389 162.102 18.535 A 0.656 0.656 0 0 1 161.949 18.826 A 2.643 2.643 0 0 1 161.824 18.952 A 3.025 3.025 0 0 1 161.456 19.248 A 16.81 16.81 0 0 0 160.894 19.652 Z M 113.433 8.596 A 7.869 7.869 0 0 0 114.452 7.383 Q 114.933 7.55 115.388 7.897 A 4.908 4.908 0 0 1 115.999 8.455 A 3.291 3.291 0 0 1 116.678 9.574 A 4.562 4.562 0 0 1 116.913 10.547 A 285.192 285.192 0 0 1 115.428 11.158 A 336.687 336.687 0 0 1 113.855 11.795 A 14.092 14.092 0 0 1 112.564 12.245 A 11.051 11.051 0 0 1 110.761 12.621 Q 110.937 11.672 111.359 10.986 A 7.858 7.858 0 0 1 112.325 9.721 Q 112.87 9.141 113.433 8.596 Z M 160.05 9 A 14.067 14.067 0 0 0 159.499 8.989 A 14.137 14.137 0 0 0 156.482 9.316 A 12.813 12.813 0 0 0 155.087 9.699 Q 154.396 9.934 153.823 10.233 A 7.113 7.113 0 0 0 153.511 10.406 A 11.868 11.868 0 0 0 154.57 11.187 A 10.822 10.822 0 0 0 154.724 11.285 Q 155.339 11.672 155.691 12.34 A 9.844 9.844 0 0 0 157.534 11.353 A 8.761 8.761 0 0 0 158.116 10.916 A 14.224 14.224 0 0 0 160.05 9 Z" vector-effect="non-scaling-stroke"/>
  </g>
</svg>
